<svg width="25" height="25" viewBox="0 0 25 25" fill="none" xmlns="http://www.w3.org/2000/svg">
<path d="M6.00781 8.87354L4.55459 18.0889C4.26747 19.9096 5.67476 21.5562 7.51797 21.5562H17.0002C18.7907 21.5562 20.1825 19.9979 19.9811 18.2188L19.2007 11.3236" stroke="black" stroke-width="1.2" stroke-linecap="round"/>
<path d="M5.99514 8.87144C4.99286 8.27344 4.39807 7.65151 4.39807 6.84049C4.39807 4.87828 7.88365 3.2876 12.1833 3.2876C16.483 3.2876 19.9686 4.87828 19.9686 6.84049C19.9686 7.65151 19.3731 8.39907 18.3708 8.99707L7.74106 17.4484" stroke="black" stroke-width="1.2" stroke-linecap="round"/>
<line x1="13.6776" y1="9.33368" x2="7.49144" y2="14.4929" stroke="black" stroke-width="1.2" stroke-linecap="round"/>
<line x1="0.75" y1="-0.75" x2="8.80517" y2="-0.75" transform="matrix(-0.767968 0.640488 -0.64048 -0.767975 19.2627 10.1768)" stroke="black" stroke-width="1.2" stroke-linecap="round"/>
</svg>
