<svg width="26" height="25" viewBox="0 0 26 25" fill="none" xmlns="http://www.w3.org/2000/svg">
<path d="M15.886 13.081H6.1217C5.01713 13.081 4.10194 12.1778 4.30339 11.0917C5.11595 6.71121 8.55794 3.42139 12.6808 3.42139C15.9472 3.42139 18.7862 5.48639 20.2289 8.52276C20.2841 8.63902 20.3373 8.75671 20.3884 8.87577C20.6669 9.52481 20.7571 10.2342 20.7571 10.9405V11.3627" stroke="#0B0B0B" stroke-width="1.5" stroke-linecap="round"/>
<path d="M4.69239 16.3363H19.7509C20.6536 16.3363 21.3854 15.6332 21.3854 14.7305V14.7305C21.3854 14.3316 21.2374 13.9096 20.9702 13.6134V13.6134C20.6645 13.2746 20.2296 13.0812 19.7732 13.0812L14.6616 13.0811" stroke="#0B0B0B" stroke-width="1.5" stroke-linecap="round"/>
<path d="M4.51221 16.3281L5.19953 19.5814C5.39492 20.5063 6.2111 21.168 7.15634 21.168H18.5375C19.4856 21.168 20.3035 20.5023 20.4959 19.5739L20.7571 18.3135" stroke="#0B0B0B" stroke-width="1.5" stroke-linecap="round"/>
<path opacity="0.5" d="M7.43865 20.4708C7.23718 19.2525 8.177 18.1445 9.41185 18.1445H22.8914C24.1262 18.1445 25.0661 19.2525 24.8646 20.4708L24.5261 22.518C24.3664 23.4835 23.5315 24.1917 22.5529 24.1917H9.75038C8.77175 24.1917 7.93685 23.4835 7.77718 22.518L7.43865 20.4708Z" fill="#0B0B0B"/>
<path opacity="0.5" d="M6.5213 14.8601C6.5213 9.5948 10.7897 5.32642 16.055 5.32642H16.2482C21.5136 5.32642 25.7819 9.5948 25.7819 14.8601H6.5213Z" fill="#0B0B0B"/>
<line x1="9.8855" y1="7.50098" x2="9.03775" y2="7.50098" stroke="#0B0B0B" stroke-width="1.5" stroke-linecap="round"/>
<line x1="11.9036" y1="10.3042" x2="11.0558" y2="10.3042" stroke="#0B0B0B" stroke-width="1.5" stroke-linecap="round"/>
<line x1="17.4343" y1="10.3042" x2="16.5866" y2="10.3042" stroke="#0B0B0B" stroke-width="1.5" stroke-linecap="round"/>
<line x1="15.4165" y1="7.05322" x2="14.5688" y2="7.05322" stroke="#0B0B0B" stroke-width="1.5" stroke-linecap="round"/>
</svg>
