<svg width="24" height="24" viewBox="0 0 24 24" fill="none" xmlns="http://www.w3.org/2000/svg">
<g clip-path="url(#clip0_9_953)">
<path d="M21.6284 19.7957C21.454 20.2039 21.1999 20.5732 20.8808 20.8818C20.5618 21.1904 20.1843 21.4322 19.7706 21.593C13.7443 24.0779 7.6428 22.6823 4.54345 21.6287C4.05145 21.4716 3.59865 21.2113 3.21533 20.8651C2.83202 20.519 2.52702 20.095 2.32073 19.6215C2.15911 19.236 2.07909 18.8213 2.08572 18.4034C2.09235 17.9855 2.18548 17.5735 2.35924 17.1934C2.58358 17.5672 2.92439 17.8571 3.32939 18.0186C5.32348 18.8481 7.40743 19.4423 9.53909 19.7893L9.81418 19.8296C9.98351 19.8523 10.155 19.8733 10.3286 19.8929C11.0578 19.9746 11.791 20.016 12.5247 20.0167C15.4031 20.0389 18.2385 19.3175 20.7563 17.9223C21.0298 17.7713 21.2655 17.5603 21.4459 17.3052C21.5099 17.4138 21.5666 17.5265 21.6155 17.6427C21.7086 17.8615 21.773 18.0914 21.8072 18.3267C21.8807 18.8236 21.819 19.331 21.6284 19.7957Z" fill="#CE955B"/>
<path d="M21.5293 17.1934L20.3785 18.1103L19.2736 18.622L17.8367 19.1722L16.9335 19.4069L15.2261 19.7856L13.7278 19.9791L12.5293 20.0176L10.8934 19.9323L9.53909 19.7893C7.40693 19.4433 5.32235 18.85 3.32756 18.0214C2.92256 17.8599 2.58174 17.57 2.35741 17.1961C2.18403 17.5756 2.0904 17.9866 2.08232 18.4038C5.4265 20.024 13.7342 23.0308 21.8393 18.3038L21.5293 17.1934Z" fill="#B57947"/>
<path d="M21.445 16.954C21.5838 17.1444 21.7002 17.3503 21.7916 17.5675C21.9461 17.9705 22.0181 18.4004 22.0032 18.8318C21.9883 19.2631 21.8869 19.6871 21.7049 20.0785C21.523 20.4699 21.2643 20.8207 20.9441 21.1102C20.624 21.3997 20.2489 21.6218 19.8412 21.7635C13.781 24.2604 7.67031 22.8868 4.48111 21.8066C3.99464 21.6737 3.54298 21.4364 3.15753 21.1112C2.77208 20.786 2.4621 20.3808 2.24915 19.9236C2.03621 19.4665 1.92542 18.9685 1.92448 18.4642C1.92353 17.9599 2.03247 17.4614 2.24371 17.0035C2.28497 16.921 2.3244 16.8467 2.36291 16.7789" stroke="#641926" stroke-width="0.5" stroke-miterlimit="10"/>
<path d="M21.666 15.9564L21.5889 16.3231L21.4184 17.131L21.39 17.2667L19.8146 18.2992L19.2351 18.4945L15.7662 19.6618L15.5645 19.6673L12.0103 19.7663L10.0159 19.6673L9.85086 19.6453L9.70689 19.6783L9.59686 19.6086L9.47949 19.5912L7.6208 19.1969L3.62283 17.9682L3.19735 17.838C3.19735 17.838 3.06989 17.6922 2.90576 17.4932C2.64878 17.1998 2.42206 16.8812 2.22904 16.5423C2.18485 16.2528 2.21063 15.9569 2.30423 15.6794C2.39042 15.3126 2.51238 14.9147 2.59674 14.6579L2.64442 14.5131L2.69119 14.3783L2.84615 14.2866L3.10199 15.5428L3.1405 15.7335L3.14784 15.7684L4.0483 16.3892L4.2051 16.3818L4.64891 16.3589L5.71901 16.3048L6.22242 16.6019L7.22192 17.1915L8.13888 16.9962L8.45524 16.9293L8.61387 16.8962L8.90272 16.8348L8.95223 16.8559L8.99258 16.8733L9.10261 16.9192L10.9815 17.7114L11.1548 17.6555L11.2291 17.6317L11.4996 17.5445L11.8471 17.4327L12.2918 17.2887L12.8814 17.0989L12.9218 17.109H12.9282L14.8291 17.5757L15.1042 17.484L15.1509 17.4693L15.393 17.4052L15.5846 17.3428L15.8212 17.2658L16.8079 16.8412L17.9027 16.7294L18.5895 16.6597L18.7097 16.6468L18.9582 16.6221L19.0645 16.6111L20.1649 15.739L21.0654 15.7152L21.3835 15.7069L21.5669 15.8665L21.666 15.9564Z" fill="#773828"/>
<path d="M21.666 15.9563L21.5889 16.3231L21.3634 16.3103C21.0884 16.2953 20.8135 16.3394 20.5571 16.4397C20.3007 16.54 20.0688 16.6941 19.877 16.8916L19.3946 17.3886C19.278 17.5085 19.1373 17.6023 18.9817 17.6637C18.8262 17.7252 18.6594 17.753 18.4923 17.7453L17.5946 17.7031C17.1941 17.6851 16.8006 17.8136 16.4879 18.0644L16.2843 18.2276C16.0891 18.3848 15.8612 18.4962 15.6172 18.5535C15.3733 18.6107 15.1196 18.6125 14.8749 18.5587L14.1478 18.3982C13.5825 18.2743 12.9924 18.335 12.4642 18.5715L12.2909 18.6485C12.0046 18.7772 11.6935 18.8414 11.3796 18.8366C11.0657 18.8319 10.7567 18.7583 10.4744 18.621L9.87561 18.3303C9.42345 18.1085 8.90236 18.0726 8.42406 18.2304L8.37913 18.2451C8.11662 18.3326 7.83698 18.3561 7.56356 18.3135C7.29013 18.2709 7.03088 18.1635 6.80745 18.0002L6.38289 17.6903C6.22277 17.5739 6.04508 17.4838 5.85655 17.4235C5.6676 17.3622 5.47015 17.3313 5.27153 17.3318C4.54346 17.332 3.84076 17.0644 3.2973 16.5799L2.28864 15.6794L2.22903 15.6262C2.22903 15.6262 2.46103 15.076 2.39592 15.0366C2.36383 15.0155 2.46745 14.8358 2.57932 14.657L2.66368 14.5277C2.74987 14.3993 2.82323 14.2948 2.82873 14.2874H2.83056L3.03963 15.5033L3.0864 15.5446L3.61732 16.0196L3.67234 16.0691L3.76404 16.1526L3.83648 16.1709L4.49211 16.3286L4.63149 16.3616L4.6645 16.369L5.70617 16.3094L5.86022 16.3002L6.67082 16.8036L7.02385 17.0228H7.19532H7.61438H7.65564H7.96374L8.13246 17.0099L9.09986 16.9329L9.36486 16.9118H9.39971L9.49141 16.9045L10.5432 17.3556L11.2254 17.6481L11.2492 17.6582L11.3052 17.6821L12.9264 17.1264L13.0832 17.0732L14.1459 17.3189L14.3018 17.3318L15.3792 17.4143L15.7524 17.2309L16.6492 16.7898L16.7208 16.755H16.7611L17.5039 16.7183L18.6959 16.6578L20.097 15.6629L20.34 15.4914L20.9058 15.6629L21.0617 15.7097L21.5605 15.861L21.666 15.9563Z" fill="#8E4438"/>
<path d="M2.76638 14.2159C2.54706 14.6612 2.38116 15.1309 2.27214 15.6152C2.19212 16.0039 2.22391 16.4074 2.36384 16.7788C2.45124 17.0193 2.58838 17.2386 2.76629 17.4226C2.94419 17.6065 3.15888 17.7508 3.39634 17.8462C6.11698 18.9227 13.4729 21.7588 20.6729 17.7545C20.9241 17.6156 21.14 17.421 21.3041 17.1856C21.4682 16.9501 21.576 16.6801 21.6192 16.3964C21.6577 16.1539 21.6734 15.9083 21.666 15.6629" stroke="#641926" stroke-width="0.5" stroke-miterlimit="10"/>
<path d="M23.0038 13.7015L22.3014 14.6442L22.0749 15.4621L21.666 15.6666H20.0484L18.7087 16.645H18.7078L18.6987 16.6523L18.5877 16.6578H18.5859L16.7308 16.7449L15.3893 17.4033H15.3884L15.183 17.5042L15.1197 17.4904L13.0951 17.0613L12.9319 17.1135L11.76 17.4877L11.5445 17.5564L11.1878 17.6701L11.1649 17.6601L9.74357 17.0439L9.24474 16.8275L8.96231 16.8605H8.9614L8.62304 16.9008H8.62212L7.32186 17.0539L7.27968 17.0585L7.26593 17.0512L5.63923 16.1718L4.18675 16.3717L4.04829 16.391L3.68793 16.0682L3.10198 15.5446L3.05522 15.5034L3.02221 15.474L2.97361 15.1476L2.84615 14.2884L2.00438 14.16L1.36342 14.0986L1.24513 13.8693L1.02414 13.4402V12.6131L1.49546 12.1959L1.64676 12.0611L2.02913 11.9767L2.36199 11.9033L2.39134 11.8969L2.42343 11.9263L2.60774 12.0987L2.62241 12.1124L2.70952 12.1931L3.09465 12.5507L3.09923 12.5553L3.22211 12.669L3.23403 12.6727L5.43841 13.4026L6.23342 13.6658L8.04535 14.2664L8.04718 14.2673L8.04993 14.2682L8.10953 14.2884L8.13429 14.292H8.13613L9.83802 14.558L10.1938 14.6139H10.1956L11.1291 14.7597L11.3107 14.7881L11.4776 14.8138L11.8884 14.7881L12.334 14.7597H12.3358L14.9171 14.5946L15.2454 14.5736H15.2463L15.4911 14.558L15.5654 14.5534L15.8606 14.535L16.1697 14.4213L16.2027 14.4094H16.2036L16.4145 14.3324L16.6822 14.2343L16.685 14.2334L18.2475 13.6639L18.927 13.4154L19.0737 13.3622L19.0746 13.3613L19.1058 13.3503H19.1067L19.1095 13.3494L20.0484 13.0065L20.3199 12.7891L20.3281 12.7818H20.329L20.5849 12.5755H20.5858L21.0534 12.1995L21.2432 12.0207L21.246 12.0189L21.4184 11.8566L21.4275 11.8483L21.4404 11.8566L21.4734 11.8795L22.6517 12.7039L22.6801 12.724L23.0038 13.7015Z" fill="#4B932A"/>
<path d="M22.6517 12.7901C22.4661 12.9676 22.2554 13.1168 22.0263 13.233C11.2501 18.4945 4.44166 14.0582 2.80396 13.233C2.31259 13.0063 1.8686 12.6886 1.49545 12.2967L2.02913 12.0868L2.31339 11.973L2.34456 11.9611L2.50228 11.8979L2.58297 12.0547L2.70952 12.2967L2.72786 12.3316L3.09464 12.6443H3.09923L3.23402 12.7589L3.41741 12.9129L4.24268 13.1394L4.4921 13.2082L5.43657 13.4668L10.192 14.6433L10.3854 14.6909L10.5092 14.7212L10.7632 14.7845H12.3303L13.9139 14.7643H14.0056L14.4788 14.7588L14.7043 14.7139L15.238 14.6066L15.6681 14.5222L16.1431 14.4305L16.4117 14.3764L16.4796 14.3627L17.1215 14.2334L17.5506 14.039L17.7523 13.9473L18.2393 13.7272L19.7467 13.0441L20.5537 12.6773L20.5748 12.6672L20.7151 12.6039L21.4624 11.9914L22.6517 12.7901Z" fill="#3E7222"/>
<path d="M12.2423 17.3354L12.8906 16.8769C13.0035 16.7964 13.1357 16.7472 13.2737 16.7345C13.4118 16.7217 13.5508 16.7459 13.6764 16.8045L13.9745 16.9439C14.3255 17.1075 14.7194 17.1554 15.0994 17.0808C15.4794 17.0061 15.8259 16.8127 16.089 16.5285C16.2238 16.3827 16.3963 16.2771 16.5874 16.2232C16.7785 16.1693 16.9808 16.1693 17.1719 16.2231L17.6625 16.3625C17.9615 16.4467 18.2798 16.4317 18.5696 16.3198C18.8594 16.2079 19.1051 16.005 19.2699 15.7417V15.7362C19.4118 15.5088 19.6228 15.3327 19.8719 15.2337C20.121 15.1347 20.3953 15.118 20.6546 15.186L21.0113 15.2777C21.1239 15.3085 21.242 15.3136 21.3569 15.2925C21.4718 15.2715 21.5804 15.225 21.6749 15.1563C21.7693 15.0876 21.8472 14.9986 21.9026 14.8958C21.958 14.7931 21.9897 14.6791 21.9952 14.5625C22.0044 14.3649 22.0893 14.1784 22.2324 14.0418C22.3755 13.9052 22.5657 13.8289 22.7636 13.8289H23.0038L22.3619 14.5111L22.2088 15.3841L21.6586 15.6647L20.3446 15.495L19.6404 15.9975L18.7867 16.7788L16.9766 16.6715L16.188 16.9338L15.3362 17.5014L14.1569 17.3051L13.0951 17.0585L12.2423 17.3354Z" fill="#96DB6E"/>
<path d="M13.1418 16.9403L12.1066 17.484L12.0103 17.5344L11.8544 17.617L11.7939 17.6041L11.7591 17.5959L10.7284 17.374L9.99481 17.0906L9.49781 16.899L9.24932 16.9247L8.70922 16.9815L7.5676 17.1007H7.52817L7.51258 17.0934L6.47274 16.6496L5.96658 16.4332L4.53795 16.4781L4.45175 16.4258L4.43341 16.4139L3.93367 16.1113L3.38349 15.7775L3.34589 15.7555L3.29821 15.5455L3.2166 15.1907L3.09006 14.6405L2.89474 14.5626C2.92317 14.4773 2.94059 14.4269 2.94059 14.4269L3.09556 14.3352L2.25378 14.2068L1.61191 14.1453L1.49545 13.9207L2.83056 14.1554C2.96897 14.1772 3.10049 14.2306 3.21486 14.3116C3.32922 14.3926 3.42333 14.4988 3.48985 14.6222L4.04003 15.7097C4.0821 15.7851 4.14535 15.8464 4.22196 15.8862C4.29857 15.926 4.38516 15.9424 4.47101 15.9334L5.01477 15.8903C5.80013 15.8262 6.58659 16.0003 7.27142 16.3901L7.40163 16.4653C7.54237 16.5449 7.70694 16.5716 7.86561 16.5405L8.02975 16.5084C8.91427 16.3349 9.8311 16.4493 10.6459 16.8348L11.0832 17.0448C11.3305 17.1618 11.6077 17.1999 11.8773 17.1539L13.1418 16.9403Z" fill="#96DB6E"/>
<path d="M21.2396 11.9345C22.792 12.3013 22.9882 13.1779 23.0038 13.6025V13.6117C23.0038 13.7226 22.9396 14.0096 22.836 14.0564C22.6757 14.1211 22.5372 14.2303 22.4369 14.3712C22.3367 14.5121 22.2789 14.6787 22.2702 14.8514V15.1265C22.2342 15.265 22.158 15.3898 22.0513 15.4852C21.9447 15.5806 21.8122 15.6424 21.6705 15.6629C21.5761 15.6801 21.4794 15.6816 21.3845 15.6675L20.9168 15.5932C20.6854 15.557 20.4487 15.574 20.2248 15.643C20.001 15.712 19.7958 15.831 19.6248 15.9912L19.3809 16.2296C19.3362 16.2738 19.289 16.3154 19.2397 16.3543C18.8428 16.6589 18.3475 16.8065 17.8486 16.7688L17.1407 16.7211C16.7493 16.6906 16.3597 16.799 16.0404 17.0274L15.7359 17.2502C15.5478 17.3832 15.33 17.4682 15.1014 17.4979C14.8729 17.5277 14.6406 17.5012 14.4247 17.4207L13.6911 17.1456C13.5009 17.0756 13.2987 17.0441 13.0962 17.053C12.8938 17.062 12.6951 17.1113 12.5119 17.1979L11.8104 17.5344C11.6189 17.6253 11.4084 17.6689 11.1965 17.6617C10.9847 17.6546 10.7776 17.5968 10.5927 17.4932L9.81234 17.0448C9.61509 16.9342 9.3979 16.8639 9.17332 16.8378C8.94873 16.8116 8.72119 16.8303 8.50383 16.8926L8.00684 17.0356C7.78462 17.1001 7.55083 17.1143 7.32243 17.0772C7.09404 17.04 6.87678 16.9526 6.68641 16.821L6.15915 16.4442C6.10637 16.4076 6.0498 16.3769 5.99043 16.3525C5.7998 16.2712 5.58859 16.2513 5.38615 16.2956L5.1294 16.3525L5.03037 16.3745C4.74063 16.4377 4.43994 16.4301 4.15375 16.3525C3.90325 16.2945 3.67262 16.1711 3.48542 15.9949C3.29822 15.8186 3.16115 15.5959 3.08823 15.3493C3.08823 15.331 3.07906 15.3126 3.07539 15.2934L2.95069 14.4883C2.9259 14.377 2.86051 14.2789 2.76729 14.2132C2.66726 14.1425 2.54774 14.1047 2.42527 14.105C2.37483 14.1051 2.32461 14.1115 2.2758 14.1242C2.18729 14.1461 2.09646 14.1572 2.0053 14.1572C1.844 14.1603 1.68428 14.1251 1.53923 14.0545C1.39418 13.9839 1.26794 13.8799 1.17086 13.751C1.09933 13.65 1.04871 13.5357 1.02196 13.4148C0.995213 13.2939 0.992873 13.1689 1.01508 13.0471C1.03729 12.9253 1.08359 12.8092 1.15128 12.7055C1.21897 12.6018 1.30668 12.5127 1.40927 12.4434C1.75199 12.2082 2.11794 12.0088 2.50137 11.8483" stroke="#641926" stroke-width="0.5" stroke-miterlimit="10"/>
<path d="M2.68293 9.31568L2.66367 9.40555L2.27855 11.1725L2.76087 12.4893L4.59481 13.2027L8.45523 14.3948L12.4541 14.9495L16.2164 14.4076L18.7243 13.5677L21.0534 12.1995L21.5614 10.9754V9.58802L20.4675 9.29551L12.2854 13.7015L3.5082 9.40555L2.9571 9.07635L2.68293 9.31568Z" fill="#773828"/>
<path d="M21.1956 11.8566C14.3642 15.8509 6.10688 13.3522 2.55731 11.9337C2.45399 11.8921 2.35496 11.8517 2.26021 11.8126L2.36199 11.9043L2.63708 12.1473L3.22394 12.67L5.0863 13.355L5.99318 13.6887L7.98299 14.2499L8.04626 14.2673L8.13796 14.2921L8.54601 14.4067L8.76516 14.4682L12.0002 14.8863H12.0186L13.8342 14.7506L15.2463 14.6442L15.5626 14.5525L15.9294 14.448L16.6758 14.2343L17.0105 14.1426L18.01 13.8575L18.397 13.6741L19.0389 13.3779L19.0966 13.3513L20.3098 12.7901L20.9581 12.25L21.0553 12.1693L21.2322 12.0217L21.4266 11.8603L21.1956 11.8566Z" fill="#8E4438"/>
<path d="M2.58298 9.27808V9.33309C2.45494 9.64884 2.35521 9.97534 2.28497 10.3087C2.1834 10.8314 2.25857 11.3731 2.49862 11.8483C2.68933 12.2318 3.00822 12.5364 3.4 12.7094C4.53613 13.2086 5.70197 13.6374 6.89089 13.9931C10.3794 15.1128 14.1309 15.1128 17.6194 13.9931C18.647 13.6367 19.6345 13.1735 20.5656 12.6112C20.8416 12.444 21.0714 12.2104 21.2341 11.9318C21.3767 11.6922 21.4702 11.4266 21.5092 11.1505C21.6075 10.5747 21.5656 9.98374 21.3872 9.42754" stroke="#641926" stroke-width="0.5" stroke-miterlimit="10"/>
<path d="M3.78146 9.39914L3.29822 10.0804L3.56964 11.1285L4.33256 11.8484L5.63923 12.5095H6.8212L7.76017 12.1986L8.49925 11.8484L3.78146 9.39914Z" fill="#C92F29"/>
<path d="M4.60581 9.81909L4.39766 10.1134L5.24952 10.9754L6.55986 11.3862L7.03944 11.1505L4.60581 9.81909Z" fill="#8C1F1F"/>
<path d="M6.7781 11.9235C6.34334 12.1087 5.8539 12.1189 5.41182 11.952C4.8213 11.7484 4.31696 11.1625 4.35456 11.0552C4.39216 10.9479 4.95609 11.3596 5.54662 11.5632C6.13714 11.7667 6.81478 11.8162 6.7781 11.9235Z" fill="#EA6565"/>
<path d="M7.27739 11.856C7.3867 11.8257 7.46633 11.7687 7.45523 11.7287C7.44414 11.6887 7.34652 11.6808 7.23721 11.7111C7.12789 11.7414 7.04827 11.7984 7.05937 11.8384C7.07046 11.8785 7.16807 11.8863 7.27739 11.856Z" fill="#EA6565"/>
<path d="M4.13268 9.66595C5.23303 11.4715 6.37924 11.4522 7.14491 11.2" stroke="#641926" stroke-width="0.5" stroke-miterlimit="10"/>
<path d="M3.68977 9.44128C3.58959 9.55562 3.4994 9.67833 3.42018 9.80807C3.33634 9.95567 3.29442 10.1234 3.29895 10.2931C3.30347 10.4627 3.35427 10.628 3.44586 10.7709C3.66182 11.1091 3.92349 11.4158 4.22344 11.6823C4.78614 12.1785 5.49761 12.4737 6.24624 12.5219C6.99486 12.57 7.73829 12.3682 8.35988 11.9483L8.45157 11.8703" stroke="#641926" stroke-width="0.5" stroke-miterlimit="10"/>
<path d="M15.6773 11.8483L20.1851 9.27808L20.6692 10.0116L20.3226 11.0542L19.4414 11.9584L18.4364 12.5095L17.039 12.4893L15.5645 11.9354L15.6773 11.8483Z" fill="#C92F29"/>
<path d="M16.9766 11.1341L19.7633 9.51837L19.6046 10.0117L18.6877 11.0772L17.7377 11.3312L16.9766 11.1341Z" fill="#8C1F1F"/>
<path d="M18.7904 11.6493C19.1737 11.6153 19.5314 11.4422 19.7959 11.1626C20.0604 10.8831 20.2135 10.5164 20.2263 10.1318C20.1594 10.0676 19.9017 10.5728 19.5496 10.9359C19.1975 11.299 18.7244 11.5851 18.7904 11.6493Z" fill="#EA6565"/>
<path d="M18.0815 12.007C18.1722 12.007 18.2457 11.9569 18.2457 11.8951C18.2457 11.8334 18.1722 11.7833 18.0815 11.7833C17.9909 11.7833 17.9174 11.8334 17.9174 11.8951C17.9174 11.9569 17.9909 12.007 18.0815 12.007Z" fill="#EA6565"/>
<path d="M15.9936 11.6713L16.8381 11.1991C17.6561 11.4641 18.8298 11.5402 19.9815 9.4697L20.0484 9.40552" stroke="#641926" stroke-width="0.5" stroke-miterlimit="10"/>
<path d="M20.2135 9.3157C20.3339 9.47282 20.4453 9.63661 20.5473 9.80628C20.6315 9.95375 20.6736 10.1215 20.6691 10.2913C20.6646 10.4611 20.6136 10.6263 20.5216 10.7691C20.2791 11.1496 19.9787 11.49 19.6312 11.7778C19.0664 12.2315 18.3713 12.4928 17.6474 12.5235C16.9235 12.5542 16.2088 12.3526 15.6076 11.9483L15.5645 11.9135" stroke="#641926" stroke-width="0.5" stroke-miterlimit="10"/>
<path d="M2.34181 9.04239C2.34181 9.04239 3.05338 7.38359 3.61273 7.54131C4.17208 7.69903 8.19756 9.55864 8.19756 9.55864L12.5577 9.98044L16.1706 9.48436L18.3795 8.64534L20.0493 7.68528L20.5518 7.39093L21.5522 8.07224L21.6586 9.13041L21.4752 9.38075L20.3446 9.16067L18.6876 10.1418L12.3349 13.6456L3.40458 9.17718L2.48761 9.34682L2.34181 9.04239Z" fill="#FEBF22"/>
<path d="M2.28038 9.27801C2.39855 8.99306 2.61578 8.76046 2.89199 8.62311C3.1682 8.48577 3.48477 8.45294 3.78329 8.53068C5.98951 9.26426 13.0107 13.4209 21.2552 7.76685V7.89706L20.7472 7.53027L20.0503 7.69716L17.7303 9.00475L15.0354 9.66405L13.0025 10.0097H10.9044L8.19665 9.44123L5.86113 8.66181L3.96118 7.78794L3.5082 7.55595L2.60774 8.0722L2.24095 8.91581L2.28038 9.27801Z" fill="#D8A023"/>
<path d="M10.501 11.4861L12.168 12.6195C12.177 12.6253 12.1875 12.6284 12.1983 12.6284C12.209 12.6284 12.2195 12.6253 12.2285 12.6195L13.9827 11.487C13.9925 11.4805 13.9999 11.4711 14.004 11.4601C14.008 11.4491 14.0084 11.437 14.0051 11.4258C14.0018 11.4145 13.9951 11.4046 13.9857 11.3975C13.9764 11.3903 13.9651 11.3864 13.9534 11.3861H10.5331C10.5214 11.3861 10.5099 11.3897 10.5004 11.3966C10.491 11.4035 10.4839 11.4132 10.4803 11.4243C10.4768 11.4355 10.4768 11.4475 10.4805 11.4586C10.4843 11.4697 10.4914 11.4793 10.501 11.4861Z" fill="#FFDB92"/>
<path d="M20.3199 7.40198L20.3446 7.41023C20.5566 7.43068 20.7617 7.4967 20.9458 7.60379C21.13 7.71087 21.2888 7.85648 21.4114 8.03065C21.534 8.20482 21.6175 8.40343 21.6562 8.61288C21.695 8.82233 21.688 9.03767 21.6357 9.24416C21.6208 9.29726 21.5889 9.34399 21.5448 9.37713C21.5007 9.41028 21.4469 9.42799 21.3918 9.42756C21.3538 9.42742 21.3166 9.41662 21.2845 9.39638C21.1286 9.29242 20.9483 9.23075 20.7613 9.21741C20.5744 9.20407 20.3872 9.23951 20.2181 9.32027C20.197 9.33036 20.1759 9.34044 20.1557 9.35236L20.053 9.41013L16.8436 11.2037L15.9991 11.676L15.57 11.9162L12.4862 13.6392C12.404 13.6805 12.3138 13.7032 12.2218 13.7055C12.1299 13.7079 12.0386 13.6899 11.9544 13.6529L8.46074 11.8731L8.03343 11.6549L7.15039 11.2046L4.13266 9.66597L3.68976 9.44131L3.52654 9.35695C3.38453 9.27579 3.22649 9.22668 3.06349 9.21306C2.9005 9.19943 2.73649 9.22163 2.58298 9.27809C2.55364 9.28909 2.52521 9.30193 2.49679 9.31477L2.37208 9.37254C2.36522 9.3758 2.35778 9.37767 2.35019 9.37805C2.34261 9.37844 2.33502 9.37732 2.32786 9.37476C2.32071 9.37221 2.31413 9.36826 2.3085 9.36316C2.30287 9.35806 2.2983 9.3519 2.29506 9.34503C2.05114 8.8627 2.51605 8.29877 2.95986 7.90356C3.1639 7.72155 3.4029 7.58302 3.66225 7.49643" stroke="#641926" stroke-width="0.5" stroke-miterlimit="10"/>
<path d="M20.3226 7.08466L20.0485 7.69903L17.2471 9.27804L13.8085 10.0116L10.4698 9.81447L6.91658 9.07631L4.5068 8.07223L3.78148 7.62567L3.57791 7.12225V6.98929L4.13268 5.38644L4.80756 4.54741L5.63925 3.51308L7.14491 2.33753L9.35938 1.36371L11.5143 1.01343L13.8406 1.19774L15.8203 1.8497L18.1173 3.39846L18.5235 3.89545L19.435 5.01048L20.0485 6.23647L20.3226 7.08466Z" fill="#CE955B"/>
<path d="M18.5235 3.89545C16.5163 2.39694 14.0507 1.6426 11.5486 1.76153C9.04655 1.88046 6.66359 2.86527 4.80756 4.54741L5.63924 3.51308L7.1449 2.33753L9.35938 1.36371L11.5142 1.01343L13.8406 1.19682L15.8203 1.84878L18.1127 3.39754L18.5235 3.89545Z" fill="#E2B48A"/>
<path d="M3.62283 6.79495C3.62283 6.79495 12.5843 12.3233 20.2703 6.92241L20.3199 7.40198L19.3754 8.20341L15.4324 9.66597L12.2075 10.0117L8.49926 9.62379L5.30638 8.40331L3.78147 7.62572L3.62283 6.79495Z" fill="#B57947"/>
<path opacity="0.49" d="M15.9221 4.81061C14.6576 4.98758 13.8993 5.52767 13.9424 5.84128C13.9855 6.15488 15.1344 6.39145 16.3943 6.20806C17.6542 6.02467 18.5657 5.51117 18.5226 5.1994C18.4795 4.88763 17.1866 4.63455 15.9221 4.81061Z" fill="#E2B48A"/>
<path d="M6.40488 4.9013C6.61146 4.81913 6.74235 4.66059 6.69724 4.54718C6.65213 4.43377 6.4481 4.40845 6.24152 4.49062C6.03494 4.57279 5.90405 4.73134 5.94916 4.84475C5.99426 4.95815 6.1983 4.98347 6.40488 4.9013Z" fill="#EDC7AB"/>
<path d="M9.30753 4.02348C9.32451 3.90261 9.1598 3.77956 8.93964 3.74863C8.71949 3.7177 8.52725 3.79061 8.51027 3.91147C8.49329 4.03233 8.658 4.15538 8.87816 4.18631C9.09832 4.21724 9.29055 4.14434 9.30753 4.02348Z" fill="#EDC7AB"/>
<path d="M9.00523 3.10539C9.24992 3.00805 9.40504 2.82043 9.3517 2.68632C9.29835 2.55221 9.05674 2.52239 8.81205 2.61973C8.56735 2.71706 8.41223 2.90468 8.46558 3.03879C8.51892 3.1729 8.76053 3.20272 9.00523 3.10539Z" fill="#EDC7AB"/>
<path d="M16.7967 3.69603C16.8929 3.58849 16.8119 3.35893 16.6157 3.18327C16.4195 3.00762 16.1824 2.9524 16.0862 3.05993C15.9899 3.16747 16.0709 3.39703 16.2671 3.57269C16.4633 3.74834 16.7004 3.80356 16.7967 3.69603Z" fill="#EDC7AB"/>
<path d="M13.3162 2.788C13.3781 2.65766 13.2356 2.46032 12.9978 2.34724C12.7599 2.23417 12.5169 2.24817 12.4549 2.37852C12.3929 2.50886 12.5355 2.7062 12.7733 2.81928C13.0112 2.93235 13.2542 2.91835 13.3162 2.788Z" fill="#EDC7AB"/>
<path d="M7.44108 3.96699C7.60516 3.96699 7.73818 3.87913 7.73818 3.77075C7.73818 3.66238 7.60516 3.57452 7.44108 3.57452C7.277 3.57452 7.14398 3.66238 7.14398 3.77075C7.14398 3.87913 7.277 3.96699 7.44108 3.96699Z" fill="#EDC7AB"/>
<path d="M17.9054 4.32965C17.9382 4.22635 17.838 4.10237 17.6816 4.05272C17.5253 4.00307 17.3719 4.04656 17.3391 4.14985C17.3063 4.25315 17.4065 4.37713 17.5629 4.42678C17.7193 4.47643 17.8726 4.43294 17.9054 4.32965Z" fill="#EDC7AB"/>
<path d="M13.7029 4.06462C13.845 3.98258 13.9163 3.83999 13.8621 3.74613C13.8079 3.65228 13.6488 3.6427 13.5067 3.72474C13.3646 3.80678 13.2933 3.94938 13.3475 4.04323C13.4017 4.13709 13.5608 4.14666 13.7029 4.06462Z" fill="#EDC7AB"/>
<path d="M12.1048 3.7707C12.2688 3.7707 12.4019 3.68284 12.4019 3.57447C12.4019 3.46609 12.2688 3.37823 12.1048 3.37823C11.9407 3.37823 11.8077 3.46609 11.8077 3.57447C11.8077 3.68284 11.9407 3.7707 12.1048 3.7707Z" fill="#EDC7AB"/>
<path d="M10.8934 4.28909C10.9212 4.20172 10.8364 4.09686 10.7042 4.05487C10.5719 4.01288 10.4422 4.04967 10.4145 4.13704C10.3868 4.2244 10.4715 4.32926 10.6037 4.37125C10.736 4.41324 10.8657 4.37645 10.8934 4.28909Z" fill="#EDC7AB"/>
<path d="M10.7214 2.77867C10.8842 2.7585 11.0054 2.65495 10.9921 2.5474C10.9788 2.43985 10.8359 2.36901 10.6731 2.38919C10.5103 2.40936 10.3891 2.51291 10.4024 2.62046C10.4157 2.72801 10.5585 2.79885 10.7214 2.77867Z" fill="#EDC7AB"/>
<path d="M14.9056 3.0119C14.9598 2.91804 14.8886 2.77545 14.7465 2.69341C14.6044 2.61137 14.4452 2.62095 14.3911 2.7148C14.3369 2.80865 14.4081 2.95124 14.5502 3.03328C14.6923 3.11532 14.8514 3.10575 14.9056 3.0119Z" fill="#EDC7AB"/>
<path d="M7.73816 5.02424C7.82578 5.02424 7.8968 4.95322 7.8968 4.86561C7.8968 4.77799 7.82578 4.70697 7.73816 4.70697C7.65055 4.70697 7.57953 4.77799 7.57953 4.86561C7.57953 4.95322 7.65055 5.02424 7.73816 5.02424Z" fill="#EDC7AB"/>
<path d="M12.3175 5.115C12.4051 5.115 12.4761 5.04398 12.4761 4.95636C12.4761 4.86875 12.4051 4.79773 12.3175 4.79773C12.2299 4.79773 12.1589 4.86875 12.1589 4.95636C12.1589 5.04398 12.2299 5.115 12.3175 5.115Z" fill="#EDC7AB"/>
<path d="M9.91597 3.42597C10.0036 3.42597 10.0746 3.35495 10.0746 3.26734C10.0746 3.17973 10.0036 3.1087 9.91597 3.1087C9.82836 3.1087 9.75734 3.17973 9.75734 3.26734C9.75734 3.35495 9.82836 3.42597 9.91597 3.42597Z" fill="#EDC7AB"/>
<path d="M15.4673 4.05314C15.5549 4.05314 15.6259 3.98212 15.6259 3.89451C15.6259 3.80689 15.5549 3.73587 15.4673 3.73587C15.3797 3.73587 15.3087 3.80689 15.3087 3.89451C15.3087 3.98212 15.3797 4.05314 15.4673 4.05314Z" fill="#EDC7AB"/>
<path d="M20.3199 7.40196C20.2791 7.551 20.1834 7.67909 20.0521 7.76049C19.9788 7.80634 19.9045 7.85219 19.8311 7.89529C18.9921 8.40084 18.1062 8.82401 17.1857 9.15887C16.891 9.26523 16.5988 9.3606 16.3091 9.44496C14.8185 9.8761 13.2682 10.0637 11.7178 10.0006C11.6261 10.0006 11.5417 9.99331 11.4546 9.98872C10.5875 9.93971 9.72571 9.82011 8.87796 9.6311C7.85065 9.40367 6.84566 9.08515 5.8749 8.67929C5.18021 8.39236 4.50616 8.05779 3.85757 7.67797C3.78 7.6323 3.71384 7.56959 3.6641 7.49457C3.61931 7.42832 3.58814 7.35383 3.5724 7.27542C3.55179 7.1805 3.55463 7.08199 3.58065 6.98841C4.12992 5.21582 5.24383 3.67149 6.75253 2.59092C8.26122 1.51035 10.0819 0.95283 11.937 1.00337C13.8096 0.950612 15.6472 1.51832 17.1638 2.61816C18.6804 3.718 19.791 5.28829 20.3226 7.08469C20.3488 7.18895 20.3478 7.29817 20.3199 7.40196Z" stroke="#641926" stroke-width="0.5" stroke-miterlimit="10"/>
</g>
<defs>
<clipPath id="clip0_9_953">
<rect width="24" height="24" fill="white"/>
</clipPath>
</defs>
</svg>
