<svg width="25" height="25" viewBox="0 0 25 25" fill="none" xmlns="http://www.w3.org/2000/svg">
<path d="M4.29177 14.2761C3.38551 13.6346 3.17087 12.3799 3.81236 11.4737C4.45385 10.5674 5.70855 10.3528 6.61481 10.9942" stroke="black"  stroke-width="1.2" stroke-linecap="round"/>
<path d="M6.6148 10.8014C6.08143 9.82762 6.43848 8.60581 7.41229 8.07244C8.38611 7.53907 9.60792 7.89612 10.1413 8.86993" stroke="black" stroke-width="1.2" stroke-linecap="round"/>
<path d="M10.1748 8.52662C10.1611 7.41639 11.0499 6.50522 12.1602 6.49146C13.2704 6.47771 14.1816 7.36657 14.1953 8.4768" stroke="black"  stroke-width="1.2" stroke-linecap="round"/>
<path d="M14.4202 8.28438C14.8946 7.28049 16.0929 6.85119 17.0968 7.3255C18.1007 7.79982 18.53 8.99814 18.0557 10.002" stroke="black" stroke-width="1.2" stroke-linecap="round"/>
<path d="M17.6525 10.3404C18.5484 9.35537 19.9405 9.16255 20.7619 9.90967C21.5832 10.6568 21.5227 12.0609 20.6268 13.0459" stroke="black"  stroke-width="1.2" stroke-linecap="round"/>
<path d="M21.383 15.597C21.4841 15.8219 21.5648 16.0074 21.6291 16.1711C22.033 17.1992 20.9873 18.1384 19.8827 18.1384H6.29199C5.18742 18.1384 4.26849 17.2311 4.5166 16.1547C5.41609 12.2525 8.91194 9.34302 13.0873 9.34302C16.14 9.34302 18.8294 10.8982 20.4065 13.2594" stroke="black" stroke-width="1.2" stroke-linecap="round"/>
</svg>
