<svg width="25" height="25" viewBox="0 0 25 25" fill="none" xmlns="http://www.w3.org/2000/svg">
<path d="M12.1197 13.2011C11.3263 13.2011 10.598 13.9049 10.598 14.8818C10.598 15.8586 11.3263 16.5625 12.1197 16.5625C12.9131 16.5625 13.6414 15.8586 13.6414 14.8818C13.6414 13.9049 12.9131 13.2011 12.1197 13.2011Z" stroke="black" stroke-width="1.2"/>
<path d="M16.8328 11.0412L15.2809 20.4675C15.1815 21.0713 14.6595 21.5144 14.0475 21.5144H10.2979C9.69005 21.5144 9.17032 21.0771 9.06632 20.4783L7.42156 11.007C7.29289 10.2661 7.86325 9.58813 8.61527 9.58813H12.447H15.5994C16.3708 9.58813 16.9581 10.28 16.8328 11.0412Z" stroke="black"  stroke-width="1.2" stroke-linecap="round"/>
<path d="M13.2289 6.40903H16.4789C17.0312 6.40903 17.4789 6.85674 17.4789 7.40903V8.57987C17.4789 9.13216 17.0312 9.57987 16.4789 9.57987H7.76038C7.20809 9.57987 6.76038 9.13216 6.76038 8.57987V6.91464C6.76038 6.6354 6.98675 6.40903 7.26599 6.40903V6.40903C7.46729 6.40903 7.64941 6.28962 7.72968 6.10501L8.68787 3.90109C8.84661 3.53597 9.20681 3.2998 9.60495 3.2998H14.5471H14.8916C15.2854 3.2998 15.6425 3.53089 15.8038 3.8901L15.9544 4.22546" stroke="black" stroke-width="1.2" stroke-linecap="round"/>
</svg>
