<svg width="25" height="25" viewBox="0 0 25 25" fill="none" xmlns="http://www.w3.org/2000/svg">
<path d="M17.9583 19.0657C17.5395 19.5255 16.9776 19.8528 16.6284 20.0128C16.5274 20.059 16.4274 20.1072 16.33 20.1607C14.9824 20.9019 13.2617 21.0933 12.5479 21.0947C7.53347 21.0947 3.46851 17.0298 3.46851 12.0154C3.46851 7.001 7.53347 2.93604 12.5479 2.93604C17.5622 2.93604 21.6272 7.001 21.6272 12.0154C21.6272 13.6009 21.2208 15.0915 20.5065 16.3887C20.4039 16.5749 20.2542 16.73 20.0777 16.8484L19.6641 17.1258C19.1765 17.4528 18.513 17.2864 18.2376 16.7679V16.7679C17.9464 16.2198 17.2287 16.0714 16.744 16.4591L15.9085 17.1275C15.4683 17.4797 14.8384 17.4633 14.417 17.0888V17.0888C13.8972 16.6267 13.09 16.7244 12.6954 17.2972L12.6446 17.371C12.1412 18.1018 11.0284 17.9846 10.6882 17.1651V17.1651C10.3931 16.4542 9.48527 16.2461 8.90997 16.7574L8.19687 17.3913" stroke="black"  stroke-width="1.2" stroke-linecap="round"/>
<circle cx="12.5394" cy="12.0155" r="2.60825" stroke="black" stroke-width="1.2"/>
<line x1="0.75" y1="-0.75" x2="1.5985" y2="-0.75" transform="matrix(0.888972 -0.457961 0.45797 0.888968 8.50366 7.80469)" stroke="black" stroke-width="1.2" stroke-linecap="round"/>
<line x1="0.75" y1="-0.75" x2="1.5985" y2="-0.75" transform="matrix(0.888961 -0.457982 0.457949 0.888979 14.8538 8.17871)" stroke="black"  stroke-width="1.2" stroke-linecap="round"/>
<line x1="0.75" y1="-0.75" x2="1.5985" y2="-0.75" transform="matrix(0.888972 -0.457961 0.45797 0.888968 16.9414 14.2324)" stroke="black" stroke-width="1.2" stroke-linecap="round"/>
<line x1="0.75" y1="-0.75" x2="1.5985" y2="-0.75" transform="matrix(0.888961 -0.457982 0.457949 0.888979 6.41602 13.6948)" stroke="black"  stroke-width="1.2" stroke-linecap="round"/>
</svg>
