<svg width="24" height="24" viewBox="0 0 24 24" fill="none" xmlns="http://www.w3.org/2000/svg">
<path d="M14.5817 17.1713L15.7979 19.1969L15.0352 20.8206L15.1898 22.0947L16.1382 22.9345L17.2706 23.078L18.2163 22.6181L18.6818 21.5905L19.5888 21.5151L20.5704 20.8187L21 19.4628L20.1031 18.1832L18.8741 17.7241L17.9459 18.0958L17.0324 17.1713L16.2974 16.0876L15.3471 17.0829L14.5817 17.1713Z" fill="#FFF1D9"/>
<path d="M15.1171 17.2522L16.129 18.771C16.2174 18.9039 16.2625 19.0609 16.2582 19.2205C16.2539 19.38 16.2005 19.5344 16.1051 19.6624C15.7968 19.9814 15.5991 20.391 15.5411 20.8309C15.4831 21.2708 15.568 21.7177 15.7831 22.1057C16.8337 23.5435 18.5806 21.9585 18.576 21.5804L18.0443 22.6236L17.1308 23.0596L16.0416 22.9382L15.1926 22.0946L15.038 20.8205L15.3443 19.9006L15.8043 19.1969L14.5882 17.1731L14.9883 17.1271L15.1171 17.2522Z" fill="#FFFAF3"/>
<path d="M16.0076 16.4289L17.3433 18.3258C17.386 18.3867 17.4456 18.4338 17.5147 18.4613C17.5839 18.4888 17.6596 18.4954 17.7324 18.4803C18.3828 18.3451 20.1758 18.1123 20.8335 19.4379L20.4113 18.5235L19.1234 17.691L17.795 17.9477L16.302 16.0158L16.0076 16.4289Z" fill="#F9DCB9"/>
<path d="M14.5817 17.1712L15.7013 18.9558C15.7705 19.0451 15.8081 19.1548 15.8081 19.2677C15.8081 19.3806 15.7705 19.4903 15.7013 19.5796C15.309 19.9381 15.0637 20.4294 15.0127 20.9583C14.9617 21.4873 15.1087 22.0164 15.4253 22.4433C15.6784 22.7072 15.9999 22.8956 16.3539 22.9874C16.708 23.0792 17.0805 23.0708 17.43 22.963C17.7795 22.8553 18.0921 22.6525 18.333 22.3773C18.5739 22.1021 18.7335 21.7653 18.794 21.4047" stroke="#641926" stroke-width="0.5" stroke-miterlimit="10"/>
<path d="M16.2458 16.0131L17.4289 17.7563C17.4827 17.8557 17.568 17.9343 17.6715 17.9798C17.7749 18.0252 17.8905 18.035 18.0001 18.0074C18.4863 17.7931 19.0346 17.7665 19.5392 17.9328C20.0439 18.0992 20.4689 18.4466 20.7323 18.908C20.8877 19.2334 20.9472 19.5962 20.9038 19.9541C20.8605 20.312 20.7161 20.6502 20.4876 20.929C20.259 21.2079 19.9558 21.4158 19.6133 21.5286C19.2709 21.6413 18.9034 21.6542 18.5539 21.5657" stroke="#641926" stroke-width="0.5" stroke-miterlimit="10"/>
<path d="M2.64946 4.98783L3.80212 3.09188L5.29699 1.78468L7.49744 1.04138L9.75308 1.15177L11.7521 1.82883L13.2497 3.01461L14.6553 5.25461L15.3177 10.626L15.6028 13.2349L15.9837 14.4271L16.4436 15.3112L16.2459 16.3571L15.2634 17.1712H14.4401L13.6094 16.875L13.0188 16.1382L11.3988 15.5476L7.6069 13.9948L4.83151 12.6848L3.25109 11.1798L2.4388 9.65182L2 8.00517L2.19502 6.04758L2.64946 4.98783Z" fill="#914527"/>
<path d="M9.22228 1.23826C7.82281 1.16308 6.43882 1.56165 5.29369 2.36964C4.14855 3.17763 3.30907 4.3479 2.91072 5.69159C1.3625 10.7291 6.42297 13.0381 7.36588 13.3987C8.48267 13.8264 8.70161 13.8789 8.70161 13.8789C10.2535 14.4118 11.7502 15.0939 13.1706 15.9156C13.9157 16.5531 14.3738 17.1529 14.9819 16.9726L14.9423 17.2485L13.8495 16.9726L12.6876 16.0131L5.67139 13.1852C5.67139 13.1852 3.48475 11.5791 3.43415 11.5653C3.38356 11.5515 2.33025 9.23235 2.33025 9.23235L2.03864 7.61514L2.42132 5.5582L3.41299 3.60429C3.41299 3.60429 5.18108 1.73594 5.18108 1.78653C5.18108 1.83713 7.08439 1 7.08439 1H9.16249L9.22228 1.23826Z" fill="#B76951"/>
<path d="M11.9222 1.96317C12.8894 3.10107 13.6231 4.41831 14.0813 5.8397C14.3913 7.4652 14.7372 12.9912 15.1392 13.8264C15.4738 14.4379 15.7577 15.0757 15.9883 15.7334C16.0276 15.9638 16.0823 16.1912 16.152 16.4142L16.4013 15.5366L15.7013 13.7593L14.8246 6.04208L13.4971 3.20782L11.9222 1.96317Z" fill="#75301B"/>
<path opacity="0.49" d="M5.13141 7.881C5.07345 9.33539 5.42486 10.5313 5.02562 10.5147C4.62637 10.4982 3.55191 9.2204 3.60986 7.76509C3.66782 6.30977 4.83795 5.23163 5.2372 5.24727C5.63644 5.26291 5.18936 6.42752 5.13141 7.881Z" fill="#B76951"/>
<path opacity="0.54" d="M10.1054 3.8463C10.3569 3.8463 10.5607 3.64243 10.5607 3.39094C10.5607 3.13945 10.3569 2.93558 10.1054 2.93558C9.8539 2.93558 9.65002 3.13945 9.65002 3.39094C9.65002 3.64243 9.8539 3.8463 10.1054 3.8463Z" fill="#7F301D"/>
<path opacity="0.54" d="M6.10744 11.0225C6.34267 11.0225 6.53336 10.8318 6.53336 10.5966C6.53336 10.3614 6.34267 10.1707 6.10744 10.1707C5.87221 10.1707 5.68152 10.3614 5.68152 10.5966C5.68152 10.8318 5.87221 11.0225 6.10744 11.0225Z" fill="#7F301D"/>
<path opacity="0.54" d="M7.52872 2.97601C7.73702 2.97601 7.90588 2.80715 7.90588 2.59885C7.90588 2.39054 7.73702 2.22168 7.52872 2.22168C7.32041 2.22168 7.15155 2.39054 7.15155 2.59885C7.15155 2.80715 7.32041 2.97601 7.52872 2.97601Z" fill="#7F301D"/>
<path opacity="0.54" d="M5.41381 4.49022C5.56115 4.49022 5.68059 4.37078 5.68059 4.22344C5.68059 4.0761 5.56115 3.95667 5.41381 3.95667C5.26647 3.95667 5.14703 4.0761 5.14703 4.22344C5.14703 4.37078 5.26647 4.49022 5.41381 4.49022Z" fill="#7F301D"/>
<path opacity="0.54" d="M10.3409 13.6921C10.4882 13.6921 10.6077 13.5727 10.6077 13.4253C10.6077 13.278 10.4882 13.1586 10.3409 13.1586C10.1936 13.1586 10.0741 13.278 10.0741 13.4253C10.0741 13.5727 10.1936 13.6921 10.3409 13.6921Z" fill="#7F301D"/>
<path opacity="0.54" d="M7.56919 5.05415C7.66877 5.05415 7.74949 4.97343 7.74949 4.87385C7.74949 4.77427 7.66877 4.69354 7.56919 4.69354C7.46961 4.69354 7.38889 4.77427 7.38889 4.87385C7.38889 4.97343 7.46961 5.05415 7.56919 5.05415Z" fill="#7F301D"/>
<path opacity="0.54" d="M9.1735 10.9104C9.30204 10.9104 9.40624 10.8062 9.40624 10.6776C9.40624 10.5491 9.30204 10.4449 9.1735 10.4449C9.04497 10.4449 8.94077 10.5491 8.94077 10.6776C8.94077 10.8062 9.04497 10.9104 9.1735 10.9104Z" fill="#7F301D"/>
<path opacity="0.54" d="M12.292 4.9134C12.448 4.9134 12.5744 4.78696 12.5744 4.63099C12.5744 4.47501 12.448 4.34857 12.292 4.34857C12.1361 4.34857 12.0096 4.47501 12.0096 4.63099C12.0096 4.78696 12.1361 4.9134 12.292 4.9134Z" fill="#7F301D"/>
<path opacity="0.54" d="M5.92803 7.87367C6.0647 7.87367 6.17549 7.76288 6.17549 7.62621C6.17549 7.48954 6.0647 7.37875 5.92803 7.37875C5.79136 7.37875 5.68057 7.48954 5.68057 7.62621C5.68057 7.76288 5.79136 7.87367 5.92803 7.87367Z" fill="#7F301D"/>
<path opacity="0.54" d="M13.1724 14.1871C13.3091 14.1871 13.4198 14.0763 13.4198 13.9396C13.4198 13.8029 13.3091 13.6921 13.1724 13.6921C13.0357 13.6921 12.9249 13.8029 12.9249 13.9396C12.9249 14.0763 13.0357 14.1871 13.1724 14.1871Z" fill="#7F301D"/>
<path d="M9.40628 1.1058C12.1513 1.39558 14.5201 3.35225 14.9506 7.0678C15.5946 12.603 15.3554 13.5137 16.199 14.7951C16.7068 15.5669 16.3747 16.3121 15.5845 16.9238" stroke="#641926" stroke-width="0.5" stroke-miterlimit="10"/>
<path d="M9.40904 1.10666C9.329 1.09746 9.10822 1.06343 8.81477 1.02939C8.67519 1.01358 8.53484 1.00559 8.39437 1.00547C7.13693 0.954033 5.89849 1.32518 4.8766 2.0597C4.54752 2.30252 4.24558 2.5801 3.976 2.88763C3.05624 3.91342 2.43964 5.17464 2.19503 6.5305C1.72312 9.2691 2.96409 12.1494 6.46622 13.5449C11.6371 15.6064 12.5772 15.6184 13.5947 16.7646C13.8624 17.0075 14.2029 17.1552 14.5633 17.1847C14.9236 17.2141 15.2836 17.1237 15.5872 16.9274" stroke="#641926" stroke-width="0.5" stroke-miterlimit="10"/>
<path d="M15.5302 16.9569C15.5866 16.9343 15.6374 16.8998 15.6792 16.8557" stroke="#641926" stroke-width="0.5" stroke-miterlimit="10"/>
</svg>
