<svg width="25" height="25" viewBox="0 0 25 25" fill="none" xmlns="http://www.w3.org/2000/svg">
<path d="M10.1309 15.3993V15.3993C9.49387 15.3993 8.91022 15.0436 8.61827 14.4774L7.72629 12.7478C6.85077 11.05 6.49104 9.13325 6.69142 7.23358L6.72948 6.87275C6.97312 4.56289 8.9211 2.80957 11.2438 2.80957V2.80957C13.5016 2.80957 15.4163 4.46899 15.7371 6.70392L15.8905 7.77298C16.1113 9.31079 15.8142 10.8783 15.046 12.2287L13.7553 14.4977C13.4383 15.0551 12.8464 15.3993 12.2053 15.3993V15.3993" stroke="black"  stroke-width="1.2" stroke-linecap="round"/>
<path d="M11.5231 20.4229C11.5231 21.1727 10.9153 21.7804 10.1656 21.7804C9.41588 21.7804 8.80811 21.1727 8.80811 20.4229C8.80811 19.6732 9.41588 19.0654 10.1656 19.0654" stroke="black" stroke-width="1.2" stroke-linecap="round"/>
<path d="M11.5233 20.4229C11.5233 21.1727 12.1311 21.7804 12.8808 21.7804C13.6305 21.7804 14.2383 21.1727 14.2383 20.4229C14.2383 19.6732 13.6305 19.0654 12.8808 19.0654" stroke="black" stroke-width="1.2" stroke-linecap="round"/>
<path d="M10.1655 15.3989V18.8596" stroke="black" stroke-width="1.2" stroke-linecap="round"/>
<path d="M12.5161 18.3662L12.5161 18.9745L12.5161 19.0653" stroke="black" stroke-width="1.2" stroke-linecap="round"/>
</svg>
