<svg width="25" height="25" viewBox="0 0 25 25" fill="none" xmlns="http://www.w3.org/2000/svg">
<path d="M12.0239 12.062H20.8672C21.4195 12.062 21.8731 12.5115 21.8117 13.0604C21.3156 17.4943 17.5543 20.9412 12.988 20.9412C8.42165 20.9412 4.66039 17.4943 4.16427 13.0604C4.10285 12.5115 4.55648 12.062 5.10876 12.062H5.96843" stroke="#131313" stroke-opacity="0.7" stroke-width="1.5" stroke-linecap="round"/>
<line x1="7.07963" y1="6.25229" x2="14.096" y2="15.4506" stroke="black" stroke-width="1.5" stroke-linecap="round"/>
<line x1="4.66312" y1="7.26742" x2="11.6795" y2="16.4657" stroke="black" stroke-width="1.5" stroke-linecap="round"/>
<path d="M14.922 4.03711L14.1223 5.77776C13.886 6.29209 13.9772 6.8976 14.3546 7.31944V7.31944C14.704 7.70996 14.8103 8.26098 14.6312 8.75342L14.3625 9.49224" stroke="black" stroke-width="1.5" stroke-linecap="round"/>
<path d="M16.922 4.03711L16.1223 5.77776C15.886 6.29209 15.9772 6.8976 16.3546 7.31944V7.31944C16.704 7.70996 16.8103 8.26098 16.6312 8.75342L16.3625 9.49224" stroke="#131313" stroke-opacity="0.7" stroke-width="1.5" stroke-linecap="round"/>
<path d="M18.922 4.03711L18.1223 5.77776C17.886 6.29209 17.9772 6.8976 18.3546 7.31944V7.31944C18.704 7.70996 18.8103 8.26098 18.6312 8.75342L18.3625 9.49224" stroke="black" stroke-width="1.5" stroke-linecap="round"/>
</svg>
