<svg width="24" height="24" viewBox="0 0 24 24" fill="none" xmlns="http://www.w3.org/2000/svg">
<g clip-path="url(#clip0_9_2466)">
<path d="M23.0023 10.057C22.9968 10.1139 22.9904 10.1708 22.9812 10.2267L22.9729 10.2763C22.9729 10.2974 22.9647 10.3185 22.961 10.3387C22.8826 10.8087 22.6337 11.2333 22.2619 11.5314C22.0538 11.6703 21.8287 11.7819 21.5921 11.8635C21.4638 11.904 21.331 11.9286 21.1967 11.9369H21.1261C20.9771 11.9381 20.8295 11.9091 20.6921 11.8516L20.6563 11.836L20.6233 11.8195L18.4241 12.8168C18.4141 13.0574 18.4376 13.2982 18.4938 13.5324C18.5702 13.7521 18.5815 13.9891 18.5263 14.2151C18.4711 14.441 18.3518 14.6462 18.1828 14.8059C18.0862 14.8803 17.9727 14.9298 17.8525 14.9499C17.8085 14.9571 17.764 14.9601 17.7194 14.9591C17.621 14.9566 17.5246 14.9312 17.4378 14.8848C17.3038 14.8019 17.1974 14.6811 17.132 14.5377C17.0667 14.3943 17.0454 14.2347 17.0708 14.0792C17.0763 14.004 17.0781 13.9333 17.0781 13.8664C17.0792 13.7444 17.0656 13.6227 17.0378 13.504C17.0378 13.4838 17.0277 13.4654 17.0222 13.448L15.5542 14.1095L15.5432 14.1214C15.4157 14.2636 15.2936 14.404 15.2019 14.5095C15.1196 14.5973 15.0201 14.667 14.9096 14.7144C14.799 14.7618 14.6799 14.7857 14.5596 14.7848C14.5349 14.7848 14.5092 14.7848 14.4826 14.7848H14.4009C13.6302 14.7848 13.4449 15.6747 13.4064 15.9509C13.3968 16.0198 13.382 16.0879 13.3623 16.1546C13.2559 16.5133 13.0146 17.1335 12.5962 17.2555L12.5476 17.2675C12.5062 17.2755 12.464 17.2786 12.4219 17.2766C12.2993 17.2677 12.1818 17.2238 12.0834 17.15C12.0558 17.1308 12.0283 17.1087 11.9999 17.0849C11.8654 16.9753 11.6981 16.9139 11.5246 16.9106C11.4169 16.9056 11.3089 16.9121 11.2026 16.9298C10.6213 17.0417 10.0819 17.3108 9.64287 17.7079C9.61534 17.7595 9.59173 17.8132 9.57222 17.8684C9.51189 18.1004 9.37629 18.3058 9.18667 18.4524C8.99705 18.599 8.76414 18.6786 8.52446 18.6786H8.45565C8.3905 18.6786 8.32169 18.6786 8.24829 18.6685C8.20426 18.6694 8.16205 18.6648 8.12076 18.6648C7.93064 18.6334 7.73548 18.6592 7.56004 18.7389C7.3846 18.8186 7.2368 18.9487 7.13539 19.1125C7.09758 19.1839 7.05401 19.252 7.00511 19.3162C6.90055 19.4872 6.76054 19.6339 6.59452 19.7463C6.4285 19.8586 6.24032 19.9341 6.04267 19.9676L5.78211 19.8667L5.40502 19.7217L5.33529 19.6951L5.25731 19.7951L5.19308 19.8759L5.08941 20.0071C4.77236 20.335 4.35023 20.5412 3.89668 20.5897C3.73799 20.6067 3.57789 20.5747 3.43794 20.4979C3.41709 20.4849 3.39411 20.4755 3.37005 20.4704C3.31784 20.4582 3.26337 20.4596 3.21183 20.4743C3.16029 20.4891 3.11337 20.5168 3.07554 20.5548C3.00277 20.638 2.95197 20.7381 2.92777 20.8459C2.90357 20.9538 2.90674 21.066 2.937 21.1723C3.15297 21.7675 3.1617 22.4183 2.96177 23.0192C2.93956 23.0617 2.9141 23.1025 2.88562 23.1412C2.80604 23.2463 2.70331 23.3317 2.58542 23.3907C2.46752 23.4497 2.33761 23.4808 2.20577 23.4816H2.13237C2.05751 23.4808 1.98288 23.4731 1.90942 23.4586C1.70485 23.4222 1.51772 23.3201 1.37637 23.1678C1.31393 23.1 1.26001 23.0248 1.21581 22.9439C1.05823 22.556 0.985469 22.1388 1.0024 21.7204C1.01933 21.302 1.12557 20.8921 1.31398 20.5181C1.39731 20.4047 1.4427 20.2679 1.44369 20.1272C1.44468 19.9865 1.40121 19.8491 1.31948 19.7346C1.21491 19.5508 1.16138 19.3423 1.16443 19.1309C1.16197 18.6951 1.26469 18.2651 1.46387 17.8774C1.66304 17.4898 1.95279 17.1559 2.30853 16.9041L2.3911 16.8344C2.59367 16.6606 2.75108 16.4402 2.84984 16.1922C3.03089 15.7225 3.2487 15.2679 3.50125 14.8325C3.54185 14.7637 3.58885 14.6989 3.64162 14.6389L3.54345 14.0976C3.50988 13.6909 3.59401 13.2831 3.78581 12.923C3.97761 12.5628 4.26899 12.2654 4.62516 12.0663C4.72443 12.0017 4.8277 11.9434 4.93436 11.892C4.99431 11.8199 5.05866 11.7515 5.12703 11.6874C5.22945 11.5926 5.31344 11.4797 5.37475 11.3543C5.73086 10.5018 6.33379 9.77519 7.10603 9.26796C7.47761 9.10006 7.64276 8.72664 7.85194 8.25873C8.16691 7.36474 8.7932 6.61404 9.61626 6.14394C9.71963 6.08536 9.80571 6.00054 9.86581 5.89805C10.2476 5.20506 10.7362 4.57653 11.3136 4.03557C11.0916 3.72932 10.9898 3.35224 11.0273 2.97588C11.0934 2.30336 11.5191 1.42258 13.1669 1.04917C13.3531 1.00929 13.5437 0.993563 13.7339 1.00238H13.7504C14.0299 1.01759 14.3068 1.06375 14.5762 1.14C14.7597 1.18954 14.9496 1.25193 15.1432 1.32349C15.2422 1.36111 15.3432 1.40148 15.445 1.44552L15.5569 1.49506C15.7404 1.57397 15.9193 1.66296 16.1074 1.75838C16.8576 2.15793 17.5728 2.62015 18.2452 3.14011C18.4021 3.2603 18.558 3.38324 18.7112 3.5071L18.7333 3.52453C19.1764 3.89152 19.604 4.27136 19.9985 4.66037C20.8978 5.52115 21.674 6.50203 22.305 7.57521C22.4623 7.85409 22.6003 8.14348 22.7179 8.44131C22.7546 8.53306 22.7876 8.6248 22.817 8.71655C22.8335 8.7661 22.8482 8.81472 22.8628 8.86335C22.9101 9.02634 22.9472 9.19211 22.9739 9.3597C22.993 9.47388 23.0055 9.58906 23.0115 9.70468C23.0115 9.72945 23.0115 9.75514 23.0115 9.77991C23.0135 9.87237 23.0105 9.96487 23.0023 10.057Z" fill="#FFDB92"/>
<path d="M22.9748 9.88541C22.9748 9.94413 22.9656 10.0029 22.9573 10.0597C22.9491 10.1166 22.9427 10.1561 22.9335 10.2029V10.224C22.8554 10.6939 22.6068 11.1186 22.2353 11.4167C22.0267 11.5554 21.8014 11.667 21.5646 11.7488C21.4367 11.7885 21.3046 11.8132 21.171 11.8222C21.0331 11.8151 20.8979 11.7814 20.7728 11.7231L20.749 11.7121C20.746 11.7105 20.7427 11.7097 20.7393 11.7097C20.736 11.7097 20.7327 11.7105 20.7297 11.7121L20.6774 11.736C20.6745 11.7374 20.6714 11.7381 20.6682 11.7381C20.665 11.7381 20.6619 11.7374 20.659 11.736L20.6334 11.724L20.6095 11.7121C20.6063 11.7108 20.6029 11.7101 20.5994 11.7101C20.5959 11.7101 20.5925 11.7108 20.5893 11.7121L18.4002 12.7012C18.3965 12.7029 18.3933 12.7056 18.391 12.709C18.3888 12.7124 18.3875 12.7163 18.3874 12.7204C18.3786 12.9565 18.4024 13.1927 18.458 13.4223C18.5345 13.642 18.5458 13.8792 18.4905 14.1052C18.4351 14.3312 18.3155 14.5363 18.1461 14.6958C18.0531 14.7672 17.9447 14.8159 17.8295 14.838C17.8254 14.8386 17.8211 14.8381 17.8172 14.8365C17.8134 14.8349 17.81 14.8322 17.8075 14.8288C17.7755 14.7863 17.7481 14.7404 17.7259 14.6921C17.6602 14.537 17.6341 14.368 17.6497 14.2003C17.6575 14.0978 17.6591 13.9948 17.6543 13.8921C17.6503 13.7909 17.6349 13.6906 17.6084 13.593C17.6075 13.5899 17.606 13.5871 17.6039 13.5848C17.6019 13.5824 17.5993 13.5805 17.5964 13.5792C17.5936 13.5779 17.5904 13.5772 17.5873 13.5772C17.5841 13.5772 17.581 13.5779 17.5781 13.5792L17.2112 13.7425C17.2078 13.744 17.2041 13.7447 17.2004 13.7444C17.1967 13.7442 17.1931 13.743 17.19 13.741C17.1869 13.739 17.1844 13.7362 17.1826 13.7329C17.1808 13.7297 17.1799 13.726 17.18 13.7223C17.1795 13.6006 17.1635 13.4794 17.1323 13.3617C17.1314 13.3587 17.1298 13.3559 17.1277 13.3535C17.1257 13.3512 17.1231 13.3493 17.1203 13.348C17.1174 13.3467 17.1143 13.346 17.1111 13.346C17.108 13.346 17.1048 13.3467 17.102 13.348L17.0249 13.3828C17.022 13.3842 17.0188 13.3848 17.0156 13.3847C17.0124 13.3847 17.0092 13.3839 17.0064 13.3825C17.0035 13.3811 17.0009 13.3791 16.9989 13.3766C16.9969 13.3742 16.9954 13.3713 16.9946 13.3682V13.3617C16.9936 13.3587 16.992 13.3559 16.9898 13.3535C16.9877 13.3511 16.985 13.3492 16.9821 13.3479C16.9792 13.3466 16.976 13.346 16.9728 13.346C16.9695 13.346 16.9664 13.3467 16.9634 13.348L15.523 13.9976L15.5157 14.0031C15.3854 14.148 15.2606 14.2912 15.1661 14.3994C15.0839 14.4872 14.9844 14.557 14.8738 14.6044C14.7633 14.6517 14.6441 14.6757 14.5239 14.6747H14.5046H14.4468H14.3642C13.5935 14.6747 13.4091 15.5646 13.3706 15.8408C13.361 15.9097 13.3462 15.9778 13.3265 16.0445C13.2201 16.4032 12.9779 17.0234 12.5604 17.1454L12.5201 17.1555C12.5148 17.1577 12.5089 17.1577 12.5036 17.1555C12.4079 17.0954 12.3001 17.0572 12.1879 17.0436C12.1593 17.0233 12.1318 17.0016 12.1054 16.9785C11.9312 16.8421 11.7105 16.7795 11.4907 16.8041C11.3832 16.7992 11.2756 16.8056 11.1695 16.8234C10.5884 16.9357 10.0491 17.2047 9.60983 17.6014C9.58268 17.6533 9.55908 17.7069 9.53918 17.762C9.47875 17.9937 9.34325 18.1989 9.15385 18.3455C8.96445 18.4921 8.73183 18.5718 8.49234 18.5721C8.4483 18.5721 8.40059 18.5721 8.35655 18.5629C8.2676 18.5533 8.17805 18.5502 8.08865 18.5538C7.89864 18.5222 7.70354 18.5479 7.52821 18.6277C7.35288 18.7074 7.20527 18.8375 7.10419 19.0015C7.06614 19.0727 7.02258 19.1408 6.97391 19.2052C6.86929 19.3754 6.72972 19.5215 6.56445 19.6338C6.39917 19.7461 6.21194 19.822 6.01514 19.8566H6.0078L5.81146 19.807L5.44447 19.7153C5.43975 19.7135 5.43451 19.7135 5.42979 19.7153L5.40685 19.7263L5.25914 19.7997L5.22427 19.8162L5.06004 19.897L3.87741 20.4768C3.87348 20.4777 3.86941 20.4777 3.86548 20.4768C3.75376 20.4726 3.64477 20.4411 3.54803 20.3851C3.48637 20.3496 3.41337 20.3394 3.34435 20.3566H3.33426C3.28252 20.3453 3.22875 20.3472 3.17793 20.3621C3.1271 20.377 3.08084 20.4045 3.04342 20.4419C2.97073 20.5252 2.92005 20.6253 2.89601 20.7332C2.87197 20.841 2.87534 20.9532 2.9058 21.0594C3.02873 21.3735 3.08751 21.7091 3.07869 22.0463C3.06986 22.3835 2.99361 22.7155 2.85442 23.0228C2.77464 23.128 2.67175 23.2133 2.55371 23.2724C2.43566 23.3314 2.30562 23.3625 2.17365 23.3632C2.12255 23.3608 2.07167 23.355 2.02135 23.3458L2.0085 23.3439C1.92202 23.2644 1.84891 23.1715 1.79198 23.0687C1.63489 22.6806 1.56278 22.2634 1.58051 21.8451C1.59823 21.4268 1.70538 21.0172 1.89473 20.6438C1.97827 20.5303 2.02379 20.3934 2.02478 20.2525C2.02577 20.1116 1.98218 19.974 1.90024 19.8593C1.79596 19.6754 1.74245 19.4671 1.74518 19.2556C1.74289 18.8199 1.84567 18.3899 2.04483 18.0023C2.24399 17.6147 2.53366 17.2808 2.88928 17.0289L2.97186 16.9601C3.17443 16.7863 3.33184 16.5659 3.4306 16.3179C3.59572 15.8922 3.78976 15.4784 4.01136 15.0793C4.03613 15.0343 4.05999 14.9939 4.08201 14.9572C4.09302 14.938 4.10494 14.9196 4.11779 14.9013C4.1288 14.8838 4.14073 14.8673 4.15265 14.8508L4.18293 14.8114L4.19394 14.7985L4.21229 14.7756C4.21455 14.773 4.21621 14.7699 4.21716 14.7666C4.21811 14.7632 4.21833 14.7597 4.21779 14.7563L4.12605 14.226C4.09317 13.8206 4.17715 13.4142 4.36804 13.055C4.55894 12.6959 4.84875 12.3989 5.20317 12.1993C5.30141 12.1357 5.40344 12.0781 5.50869 12.0268L5.51511 12.0213C5.57439 11.9506 5.63781 11.8835 5.70503 11.8204C5.75724 11.772 5.80484 11.7188 5.84724 11.6617V11.6552C5.88639 11.6028 5.9202 11.5465 5.94816 11.4873C6.30482 10.6277 6.9115 9.89512 7.68954 9.38447C8.06112 9.21657 8.22627 8.84315 8.43545 8.37524C8.7511 7.48392 9.37575 6.73525 10.1961 6.26503C10.2995 6.20645 10.3855 6.12164 10.4457 6.01915C10.806 5.37658 11.2506 4.78507 11.7677 4.26034L11.8191 4.21538L11.854 4.18602L11.8622 4.1796L11.8742 4.17043L11.8843 4.16125C11.8604 4.12822 11.8384 4.09336 11.8173 4.05849C11.8072 4.04106 11.7971 4.02455 11.7879 4.00711C11.7551 3.94782 11.726 3.88653 11.7008 3.82362C11.6943 3.80802 11.6888 3.79151 11.6833 3.77591L11.6787 3.76215L11.6732 3.74839L11.6622 3.71169V3.70526V3.69517C11.6521 3.65939 11.643 3.62453 11.6356 3.58874C11.6012 3.43125 11.5919 3.2693 11.6081 3.1089C11.6504 2.71956 11.805 2.35092 12.0531 2.04791C12.3012 1.7449 12.6321 1.52062 13.0054 1.40239L13.032 1.39138C13.0761 1.37303 13.121 1.3556 13.1669 1.33908L13.1834 1.33358C13.2339 1.31523 13.2843 1.29779 13.3385 1.28128L13.3669 1.2721L13.444 1.24825H13.4486L13.5862 1.21063L13.6733 1.18861L13.7073 1.18036L13.7458 1.17118C14.0198 1.11538 14.3012 1.107 14.578 1.14641C14.7615 1.19595 14.9514 1.25834 15.145 1.32991C15.2441 1.36752 15.345 1.40789 15.4468 1.45193L15.5588 1.50148L18.2424 3.14652C18.3993 3.26671 18.5553 3.38965 18.7085 3.51351L18.7305 3.53094C19.1736 3.89793 19.6012 4.27777 19.9957 4.66678C20.8951 5.52757 21.6713 6.50845 22.3023 7.58162C22.4596 7.86051 22.5975 8.14989 22.7151 8.44772C22.7518 8.53947 22.7848 8.63122 22.8142 8.72296C22.8307 8.77251 22.8454 8.82114 22.8601 8.86976C22.8656 8.89178 22.8711 8.9138 22.8757 8.93582C22.9225 9.12401 22.9532 9.31585 22.9674 9.50925C22.9674 9.54319 22.9674 9.5753 22.9729 9.60833C22.9783 9.7006 22.979 9.79308 22.9748 9.88541Z" fill="#FEBF22"/>
<path d="M17.7149 13.4334V14.7546L17.2864 14.5362L17.2075 13.6609L17.7149 13.4334Z" fill="#FEBF22"/>
<path d="M11.8091 4.4733C11.8091 4.4733 19.6994 8.05881 19.4535 11.1461L20.1609 11.1837L19.8682 10.2764L19.5141 9.25888L18.7094 8.13313L17.6149 7.14225L16.1074 6.0954L14.089 5.18526L12.3008 4.53569L11.8091 4.4733Z" fill="#D8A023"/>
<path d="M3.0168 22.7017L2.96176 23.0118C2.93955 23.0544 2.91409 23.0952 2.8856 23.1338C2.80602 23.239 2.7033 23.3243 2.5854 23.3834C2.4675 23.4424 2.3376 23.4735 2.20575 23.4742H2.13235C2.05772 23.4759 1.98309 23.4706 1.90941 23.4586C1.70483 23.4222 1.51771 23.3201 1.37635 23.1678C1.37597 23.156 1.37849 23.1444 1.38369 23.1338C1.51684 23.2161 1.67478 23.2486 1.82958 23.2256C2.17272 23.1632 2.59843 22.7412 2.65532 21.0732L3.01038 22.6632L3.0168 22.7017Z" fill="#D8A023"/>
<path d="M19.5727 10.7351L19.347 10.8039C19.0402 10.8976 18.7641 11.0721 18.5476 11.309C18.3312 11.546 18.1824 11.8366 18.1167 12.1507L17.8415 13.493C17.8153 13.6191 17.7634 13.7384 17.6891 13.8436C17.6147 13.9487 17.5195 14.0374 17.4093 14.1041L17.2112 14.1958L17.4653 14.728L18.1525 14.6197L18.4176 14.1334L18.2855 13.1838V12.3352L18.6094 11.5801L19.2792 11.2057L19.725 10.9571L19.5727 10.7351Z" fill="#D8A023"/>
<path d="M16.5781 12.9764L15.0413 13.8939C14.8117 14.0317 14.5685 14.1454 14.3156 14.2334L14.1092 14.3059C13.8288 14.4037 13.5717 14.5584 13.3538 14.7601C13.136 14.9619 12.9621 15.2064 12.843 15.4784L12.6302 15.9638C12.5609 16.1227 12.4392 16.2532 12.2855 16.3335C12.1318 16.4137 11.9553 16.439 11.7852 16.4051L11.7173 16.3922C11.512 16.3515 11.3002 16.3565 11.0971 16.4069C10.8939 16.4574 10.7044 16.552 10.542 16.684L9.70709 17.3647L11.3586 16.7702L12.2999 17.1372L12.8274 16.9262L13.2201 16.1206L13.5532 15.1114L14.0651 14.6169L14.9129 14.5527L15.5891 13.7691L16.5781 12.9764Z" fill="#D8A023"/>
<path d="M10.5071 16.9932L9.37771 16.9336C9.24933 16.9269 9.12132 16.9525 9.00543 17.0082C8.88953 17.0638 8.78945 17.1476 8.71437 17.252L8.61069 17.396C8.55193 17.4779 8.4745 17.5445 8.38483 17.5905C8.29516 17.6364 8.19583 17.6603 8.09507 17.6602H7.23539C7.05865 17.6602 6.8846 17.7035 6.72848 17.7864C6.57236 17.8692 6.43895 17.9891 6.33993 18.1355L6.08395 18.5144C6.05108 18.5632 6.00313 18.5998 5.94745 18.6187C5.89177 18.6376 5.83143 18.6377 5.77568 18.619L5.53805 18.5401C5.38706 18.4894 5.22441 18.4847 5.07072 18.5265C4.91703 18.5683 4.7792 18.6548 4.6747 18.775L4.27193 19.2337C4.1619 19.36 4.01201 19.4448 3.84713 19.4741C3.49533 19.538 3.17933 19.7291 2.95937 20.011C2.73941 20.2929 2.63086 20.6458 2.65441 21.0026V21.0696L3.19481 20.2558L4.16733 20.3879L4.88847 20.0328L5.33529 19.6255C5.33529 19.6255 5.96927 19.9127 5.97752 19.9136C5.98578 19.9145 6.88491 19.3108 6.88491 19.3108L7.42256 18.6016L8.32719 18.6199L9.12999 18.4052L9.58322 17.6593L9.99609 17.263L10.5071 16.9932Z" fill="#D8A023"/>
<path d="M9.70709 10.668C9.84239 10.668 9.95206 10.5583 9.95206 10.423C9.95206 10.2877 9.84239 10.1781 9.70709 10.1781C9.5718 10.1781 9.46213 10.2877 9.46213 10.423C9.46213 10.5583 9.5718 10.668 9.70709 10.668Z" fill="#D8A023"/>
<path d="M9.70709 15.8271C9.84239 15.8271 9.95206 15.7174 9.95206 15.5821C9.95206 15.4468 9.84239 15.3371 9.70709 15.3371C9.5718 15.3371 9.46213 15.4468 9.46213 15.5821C9.46213 15.7174 9.5718 15.8271 9.70709 15.8271Z" fill="#D8A023"/>
<path d="M12.2604 9.57633C12.3562 9.57633 12.4338 9.49869 12.4338 9.40293C12.4338 9.30716 12.3562 9.22952 12.2604 9.22952C12.1647 9.22952 12.087 9.30716 12.087 9.40293C12.087 9.49869 12.1647 9.57633 12.2604 9.57633Z" fill="#D8A023"/>
<path d="M3.8187 17.3171C3.95399 17.3171 4.06367 17.2074 4.06367 17.0721C4.06367 16.9368 3.95399 16.8271 3.8187 16.8271C3.68341 16.8271 3.57373 16.9368 3.57373 17.0721C3.57373 17.2074 3.68341 17.3171 3.8187 17.3171Z" fill="#D8A023"/>
<path d="M17.4616 12.4333C17.5969 12.4333 17.7066 12.3236 17.7066 12.1884C17.7066 12.0531 17.5969 11.9434 17.4616 11.9434C17.3264 11.9434 17.2167 12.0531 17.2167 12.1884C17.2167 12.3236 17.3264 12.4333 17.4616 12.4333Z" fill="#D8A023"/>
<path d="M14.8009 7.38355C14.9362 7.38355 15.0459 7.27387 15.0459 7.13858C15.0459 7.00329 14.9362 6.89362 14.8009 6.89362C14.6656 6.89362 14.556 7.00329 14.556 7.13858C14.556 7.27387 14.6656 7.38355 14.8009 7.38355Z" fill="#D8A023"/>
<path d="M9.00704 13.2177C9.08406 13.2177 9.1465 13.1553 9.1465 13.0783C9.1465 13.0012 9.08406 12.9388 9.00704 12.9388C8.93002 12.9388 8.86758 13.0012 8.86758 13.0783C8.86758 13.1553 8.93002 13.2177 9.00704 13.2177Z" fill="#D8A023"/>
<path d="M2.648 19.5061C2.72502 19.5061 2.78746 19.4437 2.78746 19.3667C2.78746 19.2896 2.72502 19.2272 2.648 19.2272C2.57098 19.2272 2.50854 19.2896 2.50854 19.3667C2.50854 19.4437 2.57098 19.5061 2.648 19.5061Z" fill="#D8A023"/>
<path d="M7.32073 17.0722C7.39775 17.0722 7.46019 17.0097 7.46019 16.9327C7.46019 16.8557 7.39775 16.7932 7.32073 16.7932C7.24371 16.7932 7.18127 16.8557 7.18127 16.9327C7.18127 17.0097 7.24371 17.0722 7.32073 17.0722Z" fill="#D8A023"/>
<path d="M7.18127 10.9993C7.25829 10.9993 7.32072 10.9368 7.32072 10.8598C7.32072 10.7828 7.25829 10.7203 7.18127 10.7203C7.10425 10.7203 7.04181 10.7828 7.04181 10.8598C7.04181 10.9368 7.10425 10.9993 7.18127 10.9993Z" fill="#D8A023"/>
<path d="M13.3174 11.882C13.3944 11.882 13.4568 11.8196 13.4568 11.7425C13.4568 11.6655 13.3944 11.6031 13.3174 11.6031C13.2404 11.6031 13.1779 11.6655 13.1779 11.7425C13.1779 11.8196 13.2404 11.882 13.3174 11.882Z" fill="#D8A023"/>
<path d="M3.92788 14.5655L3.87008 14.616C3.84576 14.6362 3.82249 14.6577 3.80035 14.6802C3.73424 14.7475 3.67634 14.8223 3.62786 14.9032C3.37917 15.3319 3.16444 15.7795 2.98562 16.2418C2.87808 16.5149 2.70474 16.7573 2.48101 16.9473C2.12123 17.1873 1.82595 17.5121 1.62117 17.893C1.41638 18.2739 1.30837 18.6994 1.30664 19.1318C1.30389 19.3169 1.35044 19.4993 1.44151 19.6603C1.53816 19.7983 1.58962 19.9628 1.5888 20.1313C1.58798 20.2997 1.53491 20.4637 1.43692 20.6007C1.08828 21.1191 0.778167 23.3752 2.1709 23.3312C3.24068 23.2972 2.97186 21.8632 2.79387 21.2072C2.75737 21.0772 2.75386 20.9402 2.78366 20.8085C2.81346 20.6768 2.87562 20.5546 2.96452 20.453C3.03383 20.3797 3.12565 20.3317 3.2254 20.3165C3.32514 20.3014 3.42708 20.3201 3.51501 20.3695C3.80111 20.4442 4.10309 20.4307 4.38139 20.3308C4.65969 20.231 4.90135 20.0494 5.07473 19.8099C5.13944 19.7358 5.22763 19.6863 5.32453 19.6696C5.42142 19.6529 5.52111 19.67 5.60687 19.7181C5.88211 19.8778 6.34085 19.9392 6.89134 19.2245C6.93522 19.1665 6.97449 19.1052 7.00878 19.041C7.13798 18.8341 7.32887 18.6729 7.55455 18.5802C7.78022 18.4876 8.02929 18.4681 8.26664 18.5245C9.31716 18.63 9.36762 17.8978 9.52176 17.6354C9.67589 17.373 11.3393 16.3198 12.0999 16.9758C12.7421 17.5263 13.1192 16.4684 13.2247 16.1143C13.2425 16.0542 13.2557 15.9928 13.2642 15.9308C13.3036 15.6454 13.5137 14.6004 14.4569 14.638C14.5742 14.6501 14.6927 14.6359 14.8038 14.5964C14.9149 14.5568 15.0158 14.493 15.0991 14.4096C15.2046 14.2885 15.3212 14.1545 15.4432 14.0187C15.7084 13.7041 16.004 13.4165 16.3258 13.16C16.601 12.9682 16.9423 12.9425 17.1139 13.2829C17.2172 13.5374 17.2526 13.8143 17.2167 14.0866C17.1378 15.2151 18.6846 15.0087 18.3452 13.5637C18.2831 13.3055 18.259 13.0397 18.2736 12.7746V12.7159C18.2852 12.4369 18.3617 12.1645 18.4971 11.9204C18.6325 11.6762 18.823 11.467 19.0535 11.3094C19.2218 11.2032 19.4125 11.1375 19.6106 11.1176C19.8087 11.0977 20.0087 11.1241 20.1948 11.1947" stroke="#641926" stroke-width="0.4" stroke-miterlimit="10"/>
<path d="M5.02887 12.0104C5.09079 11.9342 5.1576 11.8622 5.22888 11.7948C5.3428 11.6872 5.43609 11.5597 5.50412 11.4186C5.84501 10.5948 6.42384 9.89139 7.1666 9.3983C8.15289 8.95332 7.82352 7.32296 9.686 6.26877C9.81105 6.19648 9.91534 6.09314 9.98877 5.96876C10.3824 5.24689 10.9009 4.60047 11.52 4.05948" stroke="#641926" stroke-width="0.4" stroke-miterlimit="10"/>
<path d="M14.8908 8.32948C15.2474 8.08903 15.6656 7.95622 16.0955 7.94689C16.1267 7.94689 16.1573 7.94689 16.1872 7.94689C16.3664 7.94515 16.5433 7.98659 16.703 8.06773C16.8627 8.14886 17.0005 8.26728 17.1047 8.41297C17.1203 8.43774 17.135 8.46252 17.1478 8.4882C17.1717 8.54203 17.1937 8.59524 17.2139 8.64785C17.2846 8.91021 17.2666 9.1886 17.1625 9.43963C16.9869 9.86676 16.6817 10.2281 16.29 10.4727C15.9797 10.7436 15.5777 10.8858 15.166 10.8703C14.7544 10.8547 14.3643 10.6827 14.0752 10.3892C13.9912 10.2507 13.9394 10.0952 13.9235 9.93403C13.9076 9.77286 13.9281 9.61018 13.9835 9.45798L13.9981 9.41211L14.0137 9.36807V9.36073C14.1906 8.9334 14.4974 8.57259 14.8908 8.32948Z" fill="#C92F29"/>
<path d="M13.9284 10.6829C14.0761 10.8392 14.2557 10.9619 14.455 11.0427C14.6543 11.1234 14.8687 11.1603 15.0835 11.1508C15.5703 11.1421 16.0443 10.9933 16.4488 10.7224C16.8933 10.4436 17.239 10.0321 17.4369 9.54614L17.447 9.51678C17.4684 9.67307 17.4721 9.83126 17.458 9.98837C17.4399 10.1613 17.3716 10.3252 17.2616 10.46C17.0461 10.7448 16.7753 10.9833 16.4656 11.1613C16.1558 11.3392 15.8134 11.453 15.4588 11.4958C15.2412 11.522 15.0206 11.5047 14.8097 11.445C14.5988 11.3853 14.4019 11.2844 14.2303 11.1481C14.088 11.0244 13.9834 10.8632 13.9284 10.6829Z" fill="#8C1F1F"/>
<path d="M13.777 11.0177C14.1461 11.4167 14.6416 11.676 15.1799 11.7517C15.6664 11.7433 16.1403 11.5952 16.5451 11.3251C16.9897 11.0462 17.3351 10.6343 17.5323 10.1479C17.5369 10.1378 17.6681 9.81765 17.6717 9.80847C17.6965 10.0021 17.8011 9.82499 17.6809 10.2746C17.6071 10.5496 17.4986 10.8141 17.358 11.0618C17.1427 11.347 16.8721 11.5858 16.5623 11.764C16.2525 11.9421 15.9099 12.0559 15.5551 12.0985C15.3375 12.1248 15.1167 12.1076 14.9058 12.0477C14.6949 11.9879 14.498 11.8866 14.3266 11.7499C14.104 11.5381 13.9183 11.2906 13.777 11.0177Z" fill="#D8A023"/>
<path d="M14.9138 10.5104C15.1798 10.5104 15.3955 10.3617 15.3955 10.1782C15.3955 9.9948 15.1798 9.8461 14.9138 9.8461C14.6478 9.8461 14.4321 9.9948 14.4321 10.1782C14.4321 10.3617 14.6478 10.5104 14.9138 10.5104Z" fill="#EA6565"/>
<path d="M15.59 8.96533C15.8069 8.96533 15.9827 8.84415 15.9827 8.69467C15.9827 8.54519 15.8069 8.42401 15.59 8.42401C15.3731 8.42401 15.1973 8.54519 15.1973 8.69467C15.1973 8.84415 15.3731 8.96533 15.59 8.96533Z" fill="#EA6565"/>
<path d="M16.2799 9.87084C16.4446 9.87084 16.5781 9.78252 16.5781 9.67358C16.5781 9.56463 16.4446 9.47632 16.2799 9.47632C16.1153 9.47632 15.9818 9.56463 15.9818 9.67358C15.9818 9.78252 16.1153 9.87084 16.2799 9.87084Z" fill="#EA6565"/>
<path d="M16.3701 10.5998C17.2748 10.0104 17.6591 8.99667 17.2284 8.33563C16.7978 7.67459 15.7152 7.61654 14.8105 8.20597C13.9058 8.7954 13.5215 9.8091 13.9521 10.4701C14.3828 11.1312 15.4653 11.1892 16.3701 10.5998Z" stroke="#641926" stroke-width="0.4" stroke-miterlimit="10"/>
<path d="M13.8844 9.30018C13.8844 9.30018 13.3642 10.5957 14.1349 11.2608C14.8734 11.9031 16.3469 11.8214 17.3772 10.5544C17.505 10.3968 17.5843 10.2056 17.6057 10.0039C17.634 9.45738 17.5215 8.91276 17.2791 8.42215" stroke="#641926" stroke-width="0.4" stroke-miterlimit="10"/>
<path d="M10.6255 5.64221C10.9034 5.3908 11.2604 5.24443 11.6347 5.22842C11.6733 5.22842 11.7109 5.22842 11.7485 5.23393C11.857 5.24216 11.9626 5.27312 12.0584 5.32481C12.1542 5.3765 12.238 5.44775 12.3045 5.53395C12.4175 5.6903 12.4756 5.87967 12.4697 6.07251V6.07893C12.4544 6.31381 12.3907 6.543 12.2825 6.75205C12.1743 6.96111 12.0241 7.14552 11.8412 7.29367C11.6902 7.43289 11.5129 7.54062 11.3198 7.61057C11.1266 7.68051 10.9215 7.71127 10.7163 7.70103C10.609 7.69199 10.5047 7.66073 10.4101 7.60924C10.3155 7.55775 10.2326 7.48716 10.1668 7.40194C10.0781 7.28129 10.0236 7.13899 10.009 6.98999C9.99868 6.7327 10.0491 6.47661 10.1563 6.24245C10.2634 6.0083 10.4241 5.80266 10.6255 5.64221Z" fill="#C92F29"/>
<path d="M10.1383 7.98826C10.1001 7.9705 10.0674 7.94284 10.0435 7.90815C10.0196 7.87346 10.0055 7.83301 10.0025 7.791V7.66806C10.1836 7.85746 10.4277 7.97398 10.6888 7.9956C10.7385 8.00112 10.7884 8.00387 10.8384 8.00385C11.2832 7.98893 11.7083 7.81698 12.0384 7.51851C12.2514 7.33661 12.4274 7.11545 12.5568 6.8671L12.5807 7.08821C12.5787 7.1514 12.5583 7.21264 12.5219 7.26437C12.2994 7.67393 11.9245 7.97946 11.4785 8.11491C11.0325 8.25037 10.5511 8.20487 10.1383 7.98826Z" fill="#8C1F1F"/>
<path d="M10.0025 8.26257C9.92636 8.21944 10.2622 8.22862 10.2594 8.13228C10.4255 8.34606 10.6613 8.3433 10.9374 8.38734C10.9861 8.3946 11.0351 8.39919 11.0842 8.4011C11.5393 8.39768 11.9756 8.21929 12.3026 7.90291C12.5359 7.62476 12.7247 7.31217 12.8623 6.97626V7.44234C12.858 7.51177 12.8356 7.57885 12.7972 7.63684C12.5032 8.08291 12.0475 8.39744 11.5262 8.51416C11.0049 8.63089 10.4586 8.54068 10.0025 8.26257Z" fill="#D8A023"/>
<path d="M12.0127 6.28076C12.1911 6.28076 12.3357 6.18095 12.3357 6.05782C12.3357 5.93469 12.1911 5.83487 12.0127 5.83487C11.8344 5.83487 11.6898 5.93469 11.6898 6.05782C11.6898 6.18095 11.8344 6.28076 12.0127 6.28076Z" fill="#EA6565"/>
<path d="M10.8136 6.46792C11.0305 6.46792 11.2063 6.34674 11.2063 6.19726C11.2063 6.04778 11.0305 5.92661 10.8136 5.92661C10.5967 5.92661 10.4209 6.04778 10.4209 6.19726C10.4209 6.34674 10.5967 6.46792 10.8136 6.46792Z" fill="#EA6565"/>
<path d="M10.8136 7.37077C10.9783 7.37077 11.1118 7.28246 11.1118 7.17352C11.1118 7.06457 10.9783 6.97626 10.8136 6.97626C10.6489 6.97626 10.5154 7.06457 10.5154 7.17352C10.5154 7.28246 10.6489 7.37077 10.8136 7.37077Z" fill="#EA6565"/>
<path d="M12.068 7.28961C12.6792 6.67188 12.803 5.80332 12.3445 5.34963C11.8859 4.89594 11.0188 5.02893 10.4075 5.64666C9.79633 6.2644 9.67255 7.13295 10.1311 7.58664C10.5896 8.04033 11.4568 7.90734 12.068 7.28961Z" stroke="#641926" stroke-width="0.4" stroke-miterlimit="10"/>
<path d="M9.85941 6.98819V7.79465C9.86327 7.864 9.88576 7.93103 9.92451 7.98867C9.96326 8.04631 10.0168 8.09244 10.0796 8.12219C10.5246 8.35101 11.041 8.39826 11.5202 8.254C11.9993 8.10975 12.4038 7.78523 12.6485 7.34876C12.7038 7.27034 12.7336 7.1768 12.7339 7.08085L12.6256 6.05786" stroke="#641926" stroke-width="0.4" stroke-miterlimit="10"/>
<path d="M11.3118 12.5058C11.5598 12.3398 11.8502 12.2484 12.1485 12.2425C12.2871 12.234 12.4255 12.2605 12.5511 12.3197C12.6766 12.3789 12.7853 12.4687 12.8669 12.581C12.8976 12.6274 12.922 12.6777 12.9394 12.7306L12.9467 12.7517C12.9868 13.006 12.9465 13.2665 12.8313 13.4968C12.7162 13.727 12.532 13.9156 12.3045 14.0361C12.0347 14.2195 11.7129 14.3108 11.387 14.2967C11.2611 14.2957 11.1372 14.2648 11.0256 14.2066C10.9139 14.1484 10.8177 14.0645 10.7448 13.9618C10.6968 13.8882 10.6637 13.8059 10.6475 13.7196V13.7104C10.6326 13.4673 10.6872 13.225 10.8048 13.0117C10.9224 12.7984 11.0982 12.6229 11.3118 12.5058Z" fill="#C92F29"/>
<path d="M13.0559 14.216C12.8483 14.4934 12.5685 14.7086 12.2471 14.838C11.9256 14.9674 11.5748 15.0061 11.2329 14.95C11.142 14.9407 11.0551 14.9084 10.9801 14.8563C10.9052 14.8041 10.8447 14.7337 10.8044 14.6518L10.7622 14.3894C10.9432 14.5116 11.1542 14.5817 11.3723 14.5922C11.4054 14.5922 11.4393 14.5922 11.4723 14.5922C11.8271 14.586 12.1726 14.4781 12.4678 14.2811C12.7865 14.0792 13.0347 13.7833 13.1779 13.4343L13.211 13.5306C13.2461 13.7704 13.1909 14.0147 13.0559 14.216Z" fill="#8C1F1F"/>
<path d="M13.3651 14.6774C13.1575 14.9549 12.8777 15.17 12.5562 15.2994C12.2348 15.4289 11.884 15.4676 11.5421 15.4114C11.3586 15.3931 10.9732 15.2784 10.8916 15.1123L11.0989 14.9646C11.2659 15.0811 11.4466 15.038 11.6815 15.0564C11.7146 15.0564 11.7485 15.0564 11.7815 15.0564C12.1364 15.0507 12.482 14.9427 12.777 14.7453C13.1106 14.3927 13.352 13.9631 13.4798 13.4948L13.5202 13.9948C13.5546 14.2337 13.4994 14.4769 13.3651 14.6774Z" fill="#D8A023"/>
<path d="M11.2145 13.96C11.3929 13.96 11.5375 13.8602 11.5375 13.737C11.5375 13.6139 11.3929 13.5141 11.2145 13.5141C11.0362 13.5141 10.8916 13.6139 10.8916 13.737C10.8916 13.8602 11.0362 13.96 11.2145 13.96Z" fill="#EA6565"/>
<path d="M12.2109 13.7269C12.4278 13.7269 12.6036 13.6057 12.6036 13.4562C12.6036 13.3068 12.4278 13.1856 12.2109 13.1856C11.994 13.1856 11.8182 13.3068 11.8182 13.4562C11.8182 13.6057 11.994 13.7269 12.2109 13.7269Z" fill="#EA6565"/>
<path d="M12.0017 12.9388C12.1664 12.9388 12.2999 12.8505 12.2999 12.7416C12.2999 12.6326 12.1664 12.5443 12.0017 12.5443C11.8371 12.5443 11.7036 12.6326 11.7036 12.7416C11.7036 12.8505 11.8371 12.9388 12.0017 12.9388Z" fill="#EA6565"/>
<path d="M10.5071 13.7307L10.6622 14.6922C10.7112 14.8022 10.7885 14.8972 10.8861 14.9676C10.9838 15.038 11.0984 15.0813 11.2182 15.0931C11.5862 15.154 11.964 15.1121 12.3097 14.9721C12.6555 14.8321 12.956 14.5993 13.1779 14.2995C13.3363 14.0632 13.3996 13.7758 13.355 13.4949L13.0798 12.682" stroke="#641926" stroke-width="0.4" stroke-miterlimit="10"/>
<path d="M12.3868 14.1565C13.0393 13.7314 13.3095 12.9896 12.9903 12.4996C12.6712 12.0097 11.8834 11.9571 11.2309 12.3823C10.5783 12.8074 10.3081 13.5492 10.6273 14.0392C10.9465 14.5291 11.7342 14.5816 12.3868 14.1565Z" stroke="#641926" stroke-width="0.4" stroke-miterlimit="10"/>
<path d="M7.40329 13.7013C7.41846 13.7527 7.42467 13.8064 7.42164 13.86C7.41043 13.9812 7.36877 14.0977 7.30053 14.1985C7.11874 14.4917 6.88024 14.7456 6.59902 14.9454C6.31779 15.1452 5.99951 15.2868 5.66283 15.3619C5.20947 15.4675 4.73731 15.4618 4.28661 15.3454H4.27377C4.21229 15.327 4.08476 15.2894 4.0655 15.2472C4.0513 15.2134 4.04114 15.178 4.03522 15.1417L3.9765 14.8206C4.26449 15.0386 4.61824 15.1519 4.97931 15.1417C5.46604 15.1327 5.93992 14.984 6.34452 14.7133C6.8002 14.4265 7.15049 13.9996 7.34274 13.4967L7.40329 13.7013Z" fill="#8C1F1F"/>
<path d="M7.46109 13.9288C7.4776 13.9977 7.68587 13.6123 7.6822 13.6719C7.67394 13.8077 7.74642 14.1573 7.66844 14.2958C7.19515 15.0792 6.45849 15.6685 5.59034 15.9583C5.10499 16.0883 4.59317 16.0816 4.11137 15.939H4.0976C4.03155 15.917 3.89484 15.8702 3.87374 15.8189C3.85826 15.777 3.84719 15.7336 3.84071 15.6895L3.77832 15.2968C4.07497 15.5589 4.45972 15.6992 4.85544 15.6895C5.38824 15.6757 5.90265 15.4918 6.32341 15.1647C6.85188 14.7729 7.33998 14.4546 7.51614 13.9004L7.46109 13.9288Z" fill="#D8A023"/>
<path d="M6.14634 14.5949C5.79646 14.8629 5.37104 15.0139 4.93048 15.0264C4.48992 15.0389 4.05661 14.9124 3.69208 14.6646C3.91743 13.6993 4.32709 12.7865 4.89856 11.9764C5.22015 11.833 5.56764 11.7569 5.91972 11.7526C5.95642 11.7526 5.99312 11.7526 6.0289 11.7526C6.2365 11.7502 6.44177 11.7964 6.62832 11.8876C6.81487 11.9787 6.97751 12.1122 7.10327 12.2774C7.55559 12.9453 7.12621 13.9857 6.14634 14.5949Z" fill="#C92F29"/>
<path d="M4.51871 12.5177C4.24415 13.0469 4.02877 13.6047 3.87648 14.1811C3.86074 14.1371 3.84817 14.092 3.83886 14.0463C3.81161 13.7546 3.85983 13.4608 3.97889 13.1931C4.09794 12.9254 4.28384 12.6928 4.51871 12.5177Z" fill="#C92F29"/>
<path d="M5.96929 13.0736C6.23531 13.0736 6.45096 12.925 6.45096 12.7415C6.45096 12.5581 6.23531 12.4094 5.96929 12.4094C5.70326 12.4094 5.48761 12.5581 5.48761 12.7415C5.48761 12.925 5.70326 13.0736 5.96929 13.0736Z" fill="#EA6565"/>
<path d="M4.72885 13.3682C4.89353 13.3682 5.02703 13.2799 5.02703 13.1709C5.02703 13.062 4.89353 12.9737 4.72885 12.9737C4.56416 12.9737 4.43066 13.062 4.43066 13.1709C4.43066 13.2799 4.56416 13.3682 4.72885 13.3682Z" fill="#EA6565"/>
<path d="M5.21144 14.4306C5.44351 14.4306 5.63164 14.2819 5.63164 14.0985C5.63164 13.9151 5.44351 13.7664 5.21144 13.7664C4.97936 13.7664 4.79123 13.9151 4.79123 14.0985C4.79123 14.2819 4.97936 14.4306 5.21144 14.4306Z" fill="#EA6565"/>
<path d="M7.27394 12.6819L7.54919 13.6618C7.56849 13.7295 7.57655 13.7998 7.57304 13.8701C7.55989 14.0162 7.51003 14.1567 7.42808 14.2784C7.094 14.7897 6.60642 15.1821 6.0354 15.399C5.46438 15.616 4.83929 15.6463 4.24993 15.4858C4.13891 15.4518 3.98569 15.4096 3.93707 15.3023C3.91749 15.257 3.90332 15.2096 3.89486 15.161L3.69577 14.0655" stroke="#641926" stroke-width="0.4" stroke-miterlimit="10"/>
<path d="M6.26554 14.5832C7.17027 13.9937 7.55458 12.98 7.12392 12.319C6.69326 11.658 5.61071 11.5999 4.70597 12.1893C3.80124 12.7788 3.41693 13.7925 3.84759 14.4535C4.27825 15.1145 5.3608 15.1726 6.26554 14.5832Z" stroke="#641926" stroke-width="0.4" stroke-miterlimit="10"/>
<path d="M16.8478 13.2012L16.1074 13.5352C16.202 13.4447 16.3029 13.361 16.4093 13.2847C16.4622 13.2418 16.5234 13.2103 16.5891 13.1921C16.6548 13.1739 16.7235 13.1696 16.7909 13.1792C16.8106 13.1846 16.8297 13.192 16.8478 13.2012Z" fill="#B57947"/>
<path d="M18.4626 12.4736C18.4996 12.2642 18.5783 12.0644 18.6942 11.8861C18.81 11.7078 18.9606 11.5547 19.137 11.4359C19.2798 11.3479 19.4401 11.2924 19.6068 11.2732C19.7734 11.254 19.9422 11.2717 20.1012 11.3249C20.1698 11.436 20.2518 11.5383 20.3453 11.6295L18.4626 12.4736Z" fill="#B57947"/>
<path d="M22.672 10.2782C22.6086 10.6733 22.4038 11.0319 22.0958 11.2874C21.9123 11.4094 21.7141 11.5078 21.5059 11.5801C21.6927 11.197 21.7649 10.768 21.7138 10.3449C21.6627 9.92168 21.4905 9.52227 21.2178 9.19463L21.1921 9.15793C21.3606 9.08047 21.5456 9.04588 21.7306 9.05724C21.9157 9.06861 22.095 9.12558 22.2527 9.22307C22.2662 9.23073 22.2811 9.23563 22.2965 9.23752C22.3118 9.2394 22.3274 9.23821 22.3424 9.23403C22.3573 9.22986 22.3712 9.22276 22.3834 9.21317C22.3956 9.20357 22.4057 9.19166 22.4133 9.17812C22.4285 9.15059 22.4322 9.11818 22.4236 9.08794C22.415 9.0577 22.3948 9.03208 22.3674 9.01664C22.1708 8.89639 21.9467 8.82845 21.7164 8.81929C21.4861 8.81014 21.2573 8.86007 21.0517 8.96434C20.3538 8.13376 19.5289 7.41878 18.6076 6.84588C18.6052 6.82722 18.5986 6.80934 18.5883 6.79359C17.9752 5.93922 17.1541 5.25552 16.2029 4.80724C15.7641 4.58682 15.3026 4.41485 14.8266 4.29437C14.796 4.28756 14.7639 4.2932 14.7374 4.31006C14.7109 4.32693 14.6922 4.35362 14.6853 4.38428C14.6785 4.41494 14.6842 4.44705 14.701 4.47355C14.7179 4.50005 14.7446 4.51876 14.7753 4.52557C16.0395 4.85425 17.1826 5.53964 18.0681 6.49999C17.3194 6.04125 16.5891 5.65316 16.0285 5.37516C14.7003 4.63812 13.269 4.10463 11.7824 3.79251C11.7036 3.80804 11.6275 3.83525 11.5567 3.87325C11.3747 3.62389 11.2907 3.31625 11.3209 3.00898C11.4035 2.1704 12.0467 1.60982 13.2321 1.34192C13.3629 1.31371 13.4964 1.30017 13.6302 1.30155C14.5503 1.37852 15.4388 1.67353 16.2221 2.16214C17.5272 2.90625 18.7277 3.82041 19.792 4.88064C21.8747 6.93396 22.9518 8.9515 22.672 10.2782Z" fill="#CE955B"/>
<path d="M11.5567 3.87328L12.2458 2.7301L16.5515 3.95494L21.2949 8.42307L22.0821 10.3608L21.9775 11.2636L21.4958 11.7003H20.9361C20.9361 11.7003 20.2535 11.5251 20.2792 11.403C20.2107 11.1396 20.1077 10.8863 19.9728 10.6498L19.7544 9.82406L19.3177 8.93044L18.2773 7.70927L16.612 6.44131L14.5505 5.36144L12.7228 4.66323L12.0017 4.42469L11.5567 4.10449V3.87328Z" fill="#CE955B"/>
<path d="M13.7504 1.00784C13.5669 1.15005 13.3834 1.29777 13.2054 1.44823C13.1238 1.51888 13.044 1.59044 12.966 1.66201C12.6187 1.9091 12.3303 2.2298 12.1212 2.60123C11.9122 2.97267 11.7877 3.38566 11.7567 3.81075C11.7567 3.83277 11.7623 3.8557 11.7668 3.87772C11.7851 3.97665 11.816 4.07285 11.8586 4.16398C11.8766 4.20421 11.8968 4.24342 11.9191 4.28141C11.9292 4.29976 11.9402 4.3172 11.9522 4.33554C11.9641 4.35389 11.9852 4.38509 12.0035 4.40986L11.9412 4.34197L11.8494 4.24288L11.6815 4.05938L11.1686 3.49697V2.65656L11.7944 1.97854L12.6935 1.38218L13.5523 1.10051L13.6835 1.02069L13.7504 1.00784Z" fill="#F9C69D"/>
<path d="M23.0023 10.057C22.9968 10.1139 22.9904 10.1708 22.9812 10.2267L22.9729 10.2763C22.9555 10.2432 22.9381 10.2102 22.9197 10.1781C22.8931 10.1285 22.8674 10.0799 22.8399 10.0313C22.8032 9.96615 22.7674 9.90101 22.7307 9.83679L22.717 9.81202C22.6573 9.70651 22.5968 9.60191 22.5335 9.49824L22.4059 9.28447L22.3692 9.21932C22.3078 9.12115 22.2463 9.02298 22.1857 8.92665C20.1675 5.94194 17.3648 3.57198 14.0862 2.07766C13.7945 1.93178 13.5614 1.81342 13.3926 1.71709L13.3568 1.69598L13.3458 1.6914L13.3229 1.6758C13.2862 1.65194 13.2495 1.62901 13.222 1.60791C13.3081 1.59803 13.3948 1.59312 13.4816 1.59323C13.5491 1.59321 13.6165 1.58923 13.6834 1.5813C13.6467 1.56754 13.6128 1.55653 13.5834 1.54643L13.5522 1.53634C13.4908 1.51524 13.4486 1.5024 13.4293 1.49689H13.4174L13.6825 1.39046L13.755 1.36202L13.7715 1.35193H13.788C14.2675 1.38608 14.7387 1.49505 15.1844 1.67488C15.2835 1.7125 15.3845 1.75379 15.4863 1.79782C15.5652 1.83085 15.6441 1.86664 15.7248 1.90333H15.7303C15.867 1.96756 16.0056 2.03545 16.1441 2.10793C17.0683 2.60269 17.9406 3.18883 18.7479 3.85757L18.77 3.875C19.2131 4.24199 19.6406 4.62183 20.0352 5.01084C20.9353 5.8731 21.7121 6.85552 22.3435 7.93026C22.5011 8.20937 22.639 8.49907 22.7564 8.79728C22.7931 8.88903 22.8261 8.98078 22.8555 9.07253L22.8601 9.24318V9.27254L22.8867 9.34961L22.9335 9.48723L23.0069 9.70467C23.0069 9.72944 23.0069 9.75513 23.0069 9.7799C23.0105 9.87228 23.0089 9.96478 23.0023 10.057Z" fill="#F9C69D"/>
<path d="M12.2467 2.44469C12.473 2.1992 12.7517 2.00768 13.0619 1.88429C13.3722 1.7609 13.7063 1.70879 14.0394 1.73181C15.0193 1.90705 13.6192 1.37308 13.6192 1.37308H13.3174L12.9761 1.46483L12.2467 2.44469Z" fill="#F9C69D"/>
<path d="M12.4605 4.40992C12.4605 4.40992 17.1304 4.06862 20.9811 10.3258L19.9884 10.5093L19.148 8.5606L18.2791 7.70734L16.6478 6.51003L15.0679 5.63659L13.2807 4.88242L12.3008 4.53561L12.4605 4.40992Z" fill="#B57947"/>
<path d="M19.8682 10.3744C19.8682 10.3744 21.5784 7.6082 22.8629 9.87071L22.7151 10.7882L22.2179 11.3891L21.2949 11.7038L20.7875 11.6616L20.2792 11.4066L19.9728 10.7194L19.8682 10.3744Z" fill="#B57947"/>
<path d="M12.8761 1.60062L15.1074 1.69696L15.912 2.01165L15.7459 1.741L14.4505 1.24189L13.3908 1.15289L12.8761 1.60062Z" fill="#F9C69D"/>
<path d="M15.8928 13.7728L15.4643 13.9875L17.0956 13.2517" stroke="#641926" stroke-width="0.4" stroke-miterlimit="10"/>
<path d="M20.6297 11.658L18.2773 12.7186" stroke="#641926" stroke-width="0.4" stroke-miterlimit="10"/>
<path d="M20.2792 9.8708C20.2792 9.8708 21.0848 8.43586 22.3096 9.11847" stroke="#641926" stroke-width="0.4" stroke-miterlimit="10" stroke-linecap="round"/>
<path d="M14.8009 4.41C16.2753 4.78194 17.5782 5.64659 18.4938 6.86059" stroke="#641926" stroke-width="0.4" stroke-miterlimit="10" stroke-linecap="round"/>
<path d="M22.8161 10.3085C22.7451 10.7421 22.5164 11.1343 22.1738 11.4094C21.9777 11.5398 21.7659 11.6449 21.5435 11.7223C21.2758 11.8208 20.9808 11.8143 20.7178 11.704C20.4494 11.5606 20.2378 11.3302 20.1177 11.0507C20.0259 10.8623 19.951 10.6661 19.8939 10.4644C19.8691 10.3819 19.7342 9.90111 19.7104 9.78184C19.5608 9.06253 18.0864 6.31009 12.187 4.49256C11.9111 4.40826 11.6669 4.243 11.4861 4.01822C11.2521 3.731 11.1406 3.36312 11.176 2.99432C11.2439 2.30988 11.6889 1.54011 13.2009 1.19789C16.0478 0.553818 23.5253 6.94957 22.8161 10.3085Z" stroke="#641926" stroke-width="0.4" stroke-miterlimit="10"/>
</g>
<defs>
<clipPath id="clip0_9_2466">
<rect width="24" height="24" fill="white"/>
</clipPath>
</defs>
</svg>
